solid OpenSCAD_Model
  facet normal 0 0 1
    outer loop
      vertex -23.94473638762446 -3.1 0.8999999999999999
      vertex -17.078793025303792 -3.1 0.8999999999999999
      vertex -21.097677564095047 -0.8999999999999999 0.8999999999999999
    endloop
  endfacet
  facet normal 0 0 1
    outer loop
      vertex -17.078793025303792 -3.1 0.8999999999999999
      vertex -15.884490333497524 -2.177129738032818 0.8999999999999999
      vertex -21.097677564095047 -0.8999999999999999 0.8999999999999999
    endloop
  endfacet
  facet normal 0 1 0
    outer loop
      vertex -23.94473638762446 -3.1 0.8999999999999999
      vertex -17.078793025303792 -3.1 3
      vertex -17.078793025303792 -3.1 0.8999999999999999
    endloop
  endfacet
  facet normal 0 -1 0
    outer loop
      vertex -21.097677564095047 -0.8999999999999999 0.8999999999999999
      vertex -5.5 -0.8999999999999999 0.8999999999999999
      vertex -21.097677564095047 -0.8999999999999999 3
    endloop
  endfacet
  facet normal 0 0 1
    outer loop
      vertex -15.884490333497524 -2.177129738032818 0.8999999999999999
      vertex -5.5 -1.45 0.8999999999999999
      vertex -21.097677564095047 -0.8999999999999999 0.8999999999999999
    endloop
  endfacet
  facet normal 0 0 1
    outer loop
      vertex -15.884490333497524 -2.177129738032818 0.8999999999999999
      vertex -7.424846215804904 -3.1 0.8999999999999999
      vertex -5.5 -1.45 0.8999999999999999
    endloop
  endfacet
  facet normal 0 0 1
    outer loop
      vertex -21.097677564095047 -0.8999999999999999 0.8999999999999999
      vertex -5.5 -1.45 0.8999999999999999
      vertex -5.5 -0.8999999999999999 0.8999999999999999
    endloop
  endfacet
  facet normal 0 0 1
    outer loop
      vertex -7.424846215804904 -3.1 0.8999999999999999
      vertex -5.5 -3.1 0.8999999999999999
      vertex -5.5 -1.45 0.8999999999999999
    endloop
  endfacet
  facet normal 0 0 1
    outer loop
      vertex -5.5 -3.1 0.8999999999999999
      vertex -2.25 -1.775 0.8999999999999999
      vertex -5.5 -1.45 0.8999999999999999
    endloop
  endfacet
  facet normal 0 0 1
    outer loop
      vertex -5.5 -3.1 0.8999999999999999
      vertex -2.25 -2.9375 0.8999999999999999
      vertex -2.25 -1.775 0.8999999999999999
    endloop
  endfacet
  facet normal 0 1 0
    outer loop
      vertex -7.424846215804904 -3.1 0.8999999999999999
      vertex -5.5 -3.1 3
      vertex -5.5 -3.1 0.8999999999999999
    endloop
  endfacet
  facet normal 0 1 0
    outer loop
      vertex -23.94473638762446 -3.1 0.8999999999999999
      vertex -23.94473638762446 -3.1 3
      vertex -17.078793025303792 -3.1 3
    endloop
  endfacet
  facet normal 0 -1 0
    outer loop
      vertex -5.5 -0.8999999999999999 0.8999999999999999
      vertex -5.5 -0.8999999999999999 3
      vertex -21.097677564095047 -0.8999999999999999 3
    endloop
  endfacet
  facet normal 0 1 0
    outer loop
      vertex -7.424846215804904 -3.1 0.8999999999999999
      vertex -7.424846215804904 -3.1 3
      vertex -5.5 -3.1 3
    endloop
  endfacet
  facet normal 0 0 1
    outer loop
      vertex 2.25 -2.7125 0.8999999999999999
      vertex 5.5 -2.55 0.8999999999999999
      vertex 2.25 -2.2249999999999996 0.8999999999999999
    endloop
  endfacet
  facet normal 0 0 1
    outer loop
      vertex -5.5 -1.45 0.8999999999999999
      vertex -2.25 -1.775 0.8999999999999999
      vertex -5.5 -0.8999999999999999 0.8999999999999999
    endloop
  endfacet
  facet normal 0 0 1
    outer loop
      vertex -5.5 -3.1 0.8999999999999999
      vertex -2.25 -3.1 0.8999999999999999
      vertex -2.25 -2.9375 0.8999999999999999
    endloop
  endfacet
  facet normal 0 0 1
    outer loop
      vertex -2.25 -1.775 0.8999999999999999
      vertex -2.25 -0.8999999999999999 0.8999999999999999
      vertex -5.5 -0.8999999999999999 0.8999999999999999
    endloop
  endfacet
  facet normal 0 1 0
    outer loop
      vertex -5.5 -3.1 0.8999999999999999
      vertex -2.25 -3.1 3
      vertex -2.25 -3.1 0.8999999999999999
    endloop
  endfacet
  facet normal 0 -1 0
    outer loop
      vertex -5.5 -0.8999999999999999 0.8999999999999999
      vertex -2.25 -0.8999999999999999 0.8999999999999999
      vertex -2.25 -0.8999999999999999 3
    endloop
  endfacet
  facet normal 0 1 0
    outer loop
      vertex -5.5 -3.1 0.8999999999999999
      vertex -5.5 -3.1 3
      vertex -2.25 -3.1 3
    endloop
  endfacet
  facet normal 0 -1 0
    outer loop
      vertex -5.5 -0.8999999999999999 0.8999999999999999
      vertex -2.25 -0.8999999999999999 3
      vertex -5.5 -0.8999999999999999 3
    endloop
  endfacet
  facet normal 0 0 1
    outer loop
      vertex 2.25 -3.1 0.8999999999999999
      vertex 5.5 -2.55 0.8999999999999999
      vertex 2.25 -2.7125 0.8999999999999999
    endloop
  endfacet
  facet normal 0 0 1
    outer loop
      vertex 2.25 -2.2249999999999996 0.8999999999999999
      vertex 5.5 -2.55 0.8999999999999999
      vertex 2.25 -0.8999999999999999 0.8999999999999999
    endloop
  endfacet
  facet normal 0 0 1
    outer loop
      vertex 2.25 -3.1 0.8999999999999999
      vertex 7.424846215804904 -3.1 0.8999999999999999
      vertex 5.5 -2.55 0.8999999999999999
    endloop
  endfacet
  facet normal 0 0 1
    outer loop
      vertex 5.5 -2.55 0.8999999999999999
      vertex 7.424846215804904 -3.1 0.8999999999999999
      vertex 15.884490333497524 -2.177129738032818 0.8999999999999999
    endloop
  endfacet
  facet normal 0 0 1
    outer loop
      vertex 5.5 -2.55 0.8999999999999999
      vertex 21.097677564095047 -0.8999999999999999 0.8999999999999999
      vertex 2.25 -0.8999999999999999 0.8999999999999999
    endloop
  endfacet
  facet normal 0 0 1
    outer loop
      vertex 5.5 -2.55 0.8999999999999999
      vertex 15.884490333497524 -2.177129738032818 0.8999999999999999
      vertex 21.097677564095047 -0.8999999999999999 0.8999999999999999
    endloop
  endfacet
  facet normal 0 1 0
    outer loop
      vertex 2.25 -3.1 0.8999999999999999
      vertex 7.424846215804904 -3.1 3
      vertex 7.424846215804904 -3.1 0.8999999999999999
    endloop
  endfacet
  facet normal 0 -1 0
    outer loop
      vertex 2.25 -0.8999999999999999 0.8999999999999999
      vertex 21.097677564095047 -0.8999999999999999 0.8999999999999999
      vertex 2.25 -0.8999999999999999 3
    endloop
  endfacet
  facet normal 0 0 1
    outer loop
      vertex 17.078793025303792 -3.1 0.8999999999999999
      vertex 23.94473638762446 -3.1 0.8999999999999999
      vertex 15.884490333497524 -2.177129738032818 0.8999999999999999
    endloop
  endfacet
  facet normal 0 0 1
    outer loop
      vertex 15.884490333497524 -2.177129738032818 0.8999999999999999
      vertex 23.94473638762446 -3.1 0.8999999999999999
      vertex 21.097677564095047 -0.8999999999999999 0.8999999999999999
    endloop
  endfacet
  facet normal 0 1 0
    outer loop
      vertex 17.078793025303792 -3.1 0.8999999999999999
      vertex 23.94473638762446 -3.1 3
      vertex 23.94473638762446 -3.1 0.8999999999999999
    endloop
  endfacet
  facet normal 0 1 0
    outer loop
      vertex 2.25 -3.1 0.8999999999999999
      vertex 2.25 -3.1 3
      vertex 7.424846215804904 -3.1 3
    endloop
  endfacet
  facet normal 0 1 0
    outer loop
      vertex 17.078793025303792 -3.1 0.8999999999999999
      vertex 17.078793025303792 -3.1 3
      vertex 23.94473638762446 -3.1 3
    endloop
  endfacet
  facet normal 0 -1 0
    outer loop
      vertex 21.097677564095047 -0.8999999999999999 0.8999999999999999
      vertex 21.097677564095047 -0.8999999999999999 3
      vertex 2.25 -0.8999999999999999 3
    endloop
  endfacet
  facet normal 0 0 -1
    outer loop
      vertex -27.828512378036976 -10.574145518243313 0
      vertex -28.73434902727604 -6.801064312458038 0
      vertex -27.5 -10.600000001490116 0
    endloop
  endfacet
  facet normal 0 0 -1
    outer loop
      vertex -27.5 -10.600000001490116 0
      vertex -28.73434902727604 -6.801064312458038 0
      vertex -27.171487621963024 -10.574145518243313 0
    endloop
  endfacet
  facet normal 0 0 -1
    outer loop
      vertex -29.19893568754196 -9.73434902727604 0
      vertex -29.37111370265484 -9.453380048274994 0
      vertex -29.19893568754196 -7.265650972723961 0
    endloop
  endfacet
  facet normal 0 0 -1
    outer loop
      vertex -29.37111370265484 -9.453380048274994 0
      vertex -29.497218683362007 -9.148935690522194 0
      vertex -29.19893568754196 -7.265650972723961 0
    endloop
  endfacet
  facet normal 0 0 -1
    outer loop
      vertex -28.73434902727604 -10.198935687541962 0
      vertex -28.73434902727604 -6.801064312458038 0
      vertex -28.453380048274994 -10.371113702654839 0
    endloop
  endfacet
  facet normal 0 0 -1
    outer loop
      vertex -28.73434902727604 -10.198935687541962 0
      vertex -28.984924241900444 -9.984924241900444 0
      vertex -28.73434902727604 -6.801064312458038 0
    endloop
  endfacet
  facet normal 0 0 -1
    outer loop
      vertex -28.453380048274994 -10.371113702654839 0
      vertex -28.73434902727604 -6.801064312458038 0
      vertex -28.148935690522194 -10.497218683362007 0
    endloop
  endfacet
  facet normal 0 0 -1
    outer loop
      vertex -28.148935690522194 -10.497218683362007 0
      vertex -28.73434902727604 -6.801064312458038 0
      vertex -27.828512378036976 -10.574145518243313 0
    endloop
  endfacet
  facet normal 0 0 -1
    outer loop
      vertex -29.19893568754196 -9.73434902727604 0
      vertex -28.73434902727604 -6.801064312458038 0
      vertex -28.984924241900444 -9.984924241900444 0
    endloop
  endfacet
  facet normal 0 0 -1
    outer loop
      vertex -29.574145518243313 -8.828512378036976 0
      vertex -29.600000001490116 -8.5 0
      vertex -29.497218683362007 -7.851064309477806 0
    endloop
  endfacet
  facet normal 0 0 -1
    outer loop
      vertex -29.600000001490116 -8.5 0
      vertex -29.574145518243313 -8.171487621963024 0
      vertex -29.497218683362007 -7.851064309477806 0
    endloop
  endfacet
  facet normal 0 0 -1
    outer loop
      vertex -29.497218683362007 -9.148935690522194 0
      vertex -29.574145518243313 -8.828512378036976 0
      vertex -29.19893568754196 -7.265650972723961 0
    endloop
  endfacet
  facet normal 0 0 -1
    outer loop
      vertex -29.574145518243313 -8.828512378036976 0
      vertex -29.497218683362007 -7.851064309477806 0
      vertex -29.37111370265484 -7.546619951725006 0
    endloop
  endfacet
  facet normal 0 0 -1
    outer loop
      vertex -29.19893568754196 -9.73434902727604 0
      vertex -29.19893568754196 -7.265650972723961 0
      vertex -28.984924241900444 -7.015075758099556 0
    endloop
  endfacet
  facet normal 0 0 -1
    outer loop
      vertex -29.574145518243313 -8.828512378036976 0
      vertex -29.37111370265484 -7.546619951725006 0
      vertex -29.19893568754196 -7.265650972723961 0
    endloop
  endfacet
  facet normal 0 0 -1
    outer loop
      vertex -29.19893568754196 -9.73434902727604 0
      vertex -28.984924241900444 -7.015075758099556 0
      vertex -28.73434902727604 -6.801064312458038 0
    endloop
  endfacet
  facet normal 0 0 -1
    outer loop
      vertex -27.171487621963024 -10.574145518243313 0
      vertex -28.73434902727604 -6.801064312458038 0
      vertex -26.851064309477806 -10.497218683362007 0
    endloop
  endfacet
  facet normal 0 0 -1
    outer loop
      vertex -26.851064309477806 -10.497218683362007 0
      vertex -28.73434902727604 -6.801064312458038 0
      vertex -26.546619951725006 -10.371113702654839 0
    endloop
  endfacet
  facet normal 0 0 -1
    outer loop
      vertex -26.546619951725006 -10.371113702654839 0
      vertex -28.73434902727604 -6.801064312458038 0
      vertex -26.26565097272396 -10.198935687541962 0
    endloop
  endfacet
  facet normal 0 0 -1
    outer loop
      vertex -26.26565097272396 -10.198935687541962 0
      vertex -28.73434902727604 -6.801064312458038 0
      vertex -15.884490333497524 -2.177129738032818 0
    endloop
  endfacet
  facet normal -0.5224985720805071 -0.8526401598410851 0
    outer loop
      vertex -28.73434902727604 -10.198935687541962 0
      vertex -28.453380048274994 -10.371113702654839 0
      vertex -28.73434902727604 -10.198935687541962 3
    endloop
  endfacet
  facet normal -0.38268342909620123 -0.9238795338653047 0
    outer loop
      vertex -28.453380048274994 -10.371113702654839 0
      vertex -28.148935690522194 -10.497218683362007 0
      vertex -28.453380048274994 -10.371113702654839 3
    endloop
  endfacet
  facet normal -0.7604059737302273 -0.6494480388109467 0
    outer loop
      vertex -29.19893568754196 -9.73434902727604 0
      vertex -28.984924241900444 -9.984924241900444 0
      vertex -29.19893568754196 -9.73434902727604 3
    endloop
  endfacet
  facet normal -0.8526401598410851 -0.5224985720805071 0
    outer loop
      vertex -29.19893568754196 -9.73434902727604 0
      vertex -29.37111370265484 -9.453380048274994 3
      vertex -29.37111370265484 -9.453380048274994 0
    endloop
  endfacet
  facet normal -0.6494480388109467 -0.7604059737302273 0
    outer loop
      vertex -28.73434902727604 -10.198935687541962 0
      vertex -28.984924241900444 -9.984924241900444 3
      vertex -28.984924241900444 -9.984924241900444 0
    endloop
  endfacet
  facet normal -0.07845909084886164 -0.9969173341171123 0
    outer loop
      vertex -27.828512378036976 -10.574145518243313 0
      vertex -27.5 -10.600000001490116 0
      vertex -27.828512378036976 -10.574145518243313 3
    endloop
  endfacet
  facet normal 0.07845909084886164 -0.9969173341171123 0
    outer loop
      vertex -27.5 -10.600000001490116 0
      vertex -27.171487621963024 -10.574145518243313 0
      vertex -27.5 -10.600000001490116 3
    endloop
  endfacet
  facet normal -0.23344537429863108 -0.9723699178906 0
    outer loop
      vertex -28.148935690522194 -10.497218683362007 0
      vertex -27.828512378036976 -10.574145518243313 0
      vertex -28.148935690522194 -10.497218683362007 3
    endloop
  endfacet
  facet normal 0.23344537429863108 -0.9723699178906 0
    outer loop
      vertex -27.171487621963024 -10.574145518243313 0
      vertex -26.851064309477806 -10.497218683362007 0
      vertex -27.171487621963024 -10.574145518243313 3
    endloop
  endfacet
  facet normal 0.38268342909620123 -0.9238795338653047 0
    outer loop
      vertex -26.851064309477806 -10.497218683362007 0
      vertex -26.546619951725006 -10.371113702654839 0
      vertex -26.851064309477806 -10.497218683362007 3
    endloop
  endfacet
  facet normal 0.5224985720805071 -0.8526401598410851 0
    outer loop
      vertex -26.546619951725006 -10.371113702654839 0
      vertex -26.26565097272396 -10.198935687541962 0
      vertex -26.546619951725006 -10.371113702654839 3
    endloop
  endfacet
  facet normal -0.9723699178906 -0.23344537429863108 0
    outer loop
      vertex -29.497218683362007 -9.148935690522194 0
      vertex -29.574145518243313 -8.828512378036976 3
      vertex -29.574145518243313 -8.828512378036976 0
    endloop
  endfacet
  facet normal -0.9238795338653047 -0.38268342909620123 0
    outer loop
      vertex -29.37111370265484 -9.453380048274994 0
      vertex -29.497218683362007 -9.148935690522194 3
      vertex -29.497218683362007 -9.148935690522194 0
    endloop
  endfacet
  facet normal -0.9969173341171123 -0.07845909084886164 0
    outer loop
      vertex -29.574145518243313 -8.828512378036976 0
      vertex -29.600000001490116 -8.5 3
      vertex -29.600000001490116 -8.5 0
    endloop
  endfacet
  facet normal -0.9969173341171123 0.07845909084886164 0
    outer loop
      vertex -29.600000001490116 -8.5 0
      vertex -29.574145518243313 -8.171487621963024 3
      vertex -29.574145518243313 -8.171487621963024 0
    endloop
  endfacet
  facet normal -0.9723699178906 0.23344537429863108 0
    outer loop
      vertex -29.574145518243313 -8.171487621963024 0
      vertex -29.497218683362007 -7.851064309477806 3
      vertex -29.497218683362007 -7.851064309477806 0
    endloop
  endfacet
  facet normal -0.9238795338653047 0.38268342909620123 0
    outer loop
      vertex -29.497218683362007 -7.851064309477806 0
      vertex -29.37111370265484 -7.546619951725006 3
      vertex -29.37111370265484 -7.546619951725006 0
    endloop
  endfacet
  facet normal -0.8526401598410851 0.5224985720805071 0
    outer loop
      vertex -29.37111370265484 -7.546619951725006 0
      vertex -29.19893568754196 -7.265650972723961 3
      vertex -29.19893568754196 -7.265650972723961 0
    endloop
  endfacet
  facet normal -0.7604059737302273 0.6494480388109467 0
    outer loop
      vertex -29.19893568754196 -7.265650972723961 0
      vertex -28.984924241900444 -7.015075758099556 3
      vertex -28.984924241900444 -7.015075758099556 0
    endloop
  endfacet
  facet normal -0.6494480388109467 0.7604059737302273 0
    outer loop
      vertex -28.984924241900444 -7.015075758099556 0
      vertex -28.73434902727604 -6.801064312458038 3
      vertex -28.73434902727604 -6.801064312458038 0
    endloop
  endfacet
  facet normal -0.6114475010757654 0.7912850013921671 0
    outer loop
      vertex -28.73434902727604 -6.801064312458038 0
      vertex -28.73434902727604 -6.801064312458038 3
      vertex -23.94473638762446 -3.1 0.8999999999999999
    endloop
  endfacet
  facet normal 0.6114475011242543 -0.7912850013546985 0
    outer loop
      vertex -26.26565097272396 -10.198935687541962 0
      vertex -15.884490333497524 -2.177129738032818 0
      vertex -26.26565097272396 -10.198935687541962 3
    endloop
  endfacet
  facet normal 0.6114475011242543 -0.7912850013546985 2.7109880430382293e-16
    outer loop
      vertex -15.884490333497524 -2.177129738032818 0
      vertex -17.078793025303792 -3.1 0.8999999999999999
      vertex -26.26565097272396 -10.198935687541962 3
    endloop
  endfacet
  facet normal -0.6114475010757655 0.7912850013921672 -7.085418582473402e-16
    outer loop
      vertex -28.73434902727604 -6.801064312458038 0
      vertex -23.94473638762446 -3.1 0.8999999999999999
      vertex -21.097677564095047 -0.8999999999999999 0.8999999999999999
    endloop
  endfacet
  facet normal 0 0 -1
    outer loop
      vertex -28.73434902727604 -6.801064312458038 0
      vertex -17.73434902727604 1.6989356875419617 0
      vertex -15.884490333497524 -2.177129738032818 0
    endloop
  endfacet
  facet normal -0.6114475010757654 0.791285001392167 1.2778222946707388e-15
    outer loop
      vertex -28.73434902727604 -6.801064312458038 0
      vertex -21.097677564095047 -0.8999999999999999 0.8999999999999999
      vertex -17.73434902727604 1.6989356875419617 0
    endloop
  endfacet
  facet normal 0.6114475011242542 -0.7912850013546986 0
    outer loop
      vertex -15.884490333497524 -2.177129738032818 0
      vertex -15.884490333497524 -2.177129738032818 0.8999999999999999
      vertex -17.078793025303792 -3.1 0.8999999999999999
    endloop
  endfacet
  facet normal -0.6114475010757656 0.7912850013921668 3.9236275392787207e-19
    outer loop
      vertex -17.73434902727604 1.6989356875419617 0
      vertex -21.097677564095047 -0.8999999999999999 0.8999999999999999
      vertex -21.097677564095047 -0.8999999999999999 3
    endloop
  endfacet
  facet normal -0.5224985720805071 0.8526401598410851 0
    outer loop
      vertex -17.73434902727604 1.6989356875419617 0
      vertex -17.453380048274994 1.8711137026548386 3
      vertex -17.453380048274994 1.8711137026548386 0
    endloop
  endfacet
  facet normal -0.38268342909620123 0.9238795338653047 0
    outer loop
      vertex -17.453380048274994 1.8711137026548386 0
      vertex -17.148935690522194 1.9972186833620071 3
      vertex -17.148935690522194 1.9972186833620071 0
    endloop
  endfacet
  facet normal -0.23344537429863108 0.9723699178906 0
    outer loop
      vertex -17.148935690522194 1.9972186833620071 0
      vertex -16.828512378036976 2.074145518243313 3
      vertex -16.828512378036976 2.074145518243313 0
    endloop
  endfacet
  facet normal -0.07845909084886164 0.9969173341171123 0
    outer loop
      vertex -16.828512378036976 2.074145518243313 0
      vertex -16.5 2.100000001490116 3
      vertex -16.5 2.100000001490116 0
    endloop
  endfacet
  facet normal 0.07845909084886164 0.9969173341171123 0
    outer loop
      vertex -16.5 2.100000001490116 0
      vertex -16.171487621963024 2.074145518243313 3
      vertex -16.171487621963024 2.074145518243313 0
    endloop
  endfacet
  facet normal 0 0 -1
    outer loop
      vertex -7 -10.200000002980232 0
      vertex -7 -3.1463468596339226 0
      vertex 7 -10.200000002980232 0
    endloop
  endfacet
  facet normal 0 0 -1
    outer loop
      vertex -2.25 -4.649999998509884 0
      vertex 7 -10.200000002980232 0
      vertex -7 -3.1463468596339226 0
    endloop
  endfacet
  facet normal 0 -1 0
    outer loop
      vertex -7 -10.200000002980232 0
      vertex 7 -10.200000002980232 0
      vertex -7 -10.200000002980232 3
    endloop
  endfacet
  facet normal -1 0 0
    outer loop
      vertex -7 -10.200000002980232 0
      vertex -7 -3.1463468596339226 3
      vertex -7 -3.1463468596339226 0
    endloop
  endfacet
  facet normal 0 1 0
    outer loop
      vertex -2.25 -4.649999998509884 0
      vertex -2.25 -4.649999998509884 3
      vertex 2.25 -4.649999998509884 0
    endloop
  endfacet
  facet normal 0 0 -1
    outer loop
      vertex -15.884490333497524 -2.177129738032818 0
      vertex -17.73434902727604 1.6989356875419617 0
      vertex -7 -3.1463468596339226 0
    endloop
  endfacet
  facet normal -0.10844750954629212 -0.9941021766766266 0
    outer loop
      vertex -15.884490333497524 -2.177129738032818 0
      vertex -7 -3.1463468596339226 0
      vertex -15.884490333497524 -2.177129738032818 0.8999999999999999
    endloop
  endfacet
  facet normal 0 0 -1
    outer loop
      vertex -17.73434902727604 1.6989356875419617 0
      vertex -2.25 -4.649999998509884 0
      vertex -7 -3.1463468596339226 0
    endloop
  endfacet
  facet normal -0.10844750954629213 -0.9941021766766267 -1.3637197748770982e-16
    outer loop
      vertex -15.884490333497524 -2.177129738032818 0.8999999999999999
      vertex -7 -3.1463468596339226 0
      vertex -7.424846215804904 -3.1 0.8999999999999999
    endloop
  endfacet
  facet normal 0 0 -1
    outer loop
      vertex -17.73434902727604 1.6989356875419617 0
      vertex -17.453380048274994 1.8711137026548386 0
      vertex -2.25 -4.649999998509884 0
    endloop
  endfacet
  facet normal 0 0 -1
    outer loop
      vertex -17.453380048274994 1.8711137026548386 0
      vertex -17.148935690522194 1.9972186833620071 0
      vertex -2.25 -4.649999998509884 0
    endloop
  endfacet
  facet normal 0 0 -1
    outer loop
      vertex -17.148935690522194 1.9972186833620071 0
      vertex -16.828512378036976 2.074145518243313 0
      vertex -2.25 -4.649999998509884 0
    endloop
  endfacet
  facet normal 0 0 -1
    outer loop
      vertex -16.828512378036976 2.074145518243313 0
      vertex -16.5 2.100000001490116 0
      vertex -2.25 -4.649999998509884 0
    endloop
  endfacet
  facet normal 0 0 -1
    outer loop
      vertex -16.5 2.100000001490116 0
      vertex -16.171487621963024 2.074145518243313 0
      vertex -2.25 -4.649999998509884 0
    endloop
  endfacet
  facet normal 0 0 -1
    outer loop
      vertex -16.171487621963024 2.074145518243313 0
      vertex -5.408487051725388 0.8999999985098839 0
      vertex -2.25 -4.649999998509884 0
    endloop
  endfacet
  facet normal 0 0 -1
    outer loop
      vertex -2.25 -4.649999998509884 0
      vertex -5.408487051725388 0.8999999985098839 0
      vertex -2.25 -0.14999999850988388 0
    endloop
  endfacet
  facet normal 1 0 0
    outer loop
      vertex -2.25 -4.649999998509884 0
      vertex -2.25 -0.14999999850988388 0
      vertex -2.25 -2.9375 0.8999999999999999
    endloop
  endfacet
  facet normal 1 0 0
    outer loop
      vertex -2.25 -4.649999998509884 0
      vertex -2.25 -2.9375 0.8999999999999999
      vertex -2.25 -3.1 0.8999999999999999
    endloop
  endfacet
  facet normal 1 0 0
    outer loop
      vertex -2.25 -0.14999999850988388 0
      vertex -2.25 -1.775 0.8999999999999999
      vertex -2.25 -2.9375 0.8999999999999999
    endloop
  endfacet
  facet normal 0 0 -1
    outer loop
      vertex -5.408487051725388 0.8999999985098839 0
      vertex 5.408487051725388 0.8999999985098839 0
      vertex -2.25 -0.14999999850988388 0
    endloop
  endfacet
  facet normal 1 0 0
    outer loop
      vertex -2.25 -0.14999999850988388 0
      vertex -2.25 -0.8999999999999999 0.8999999999999999
      vertex -2.25 -1.775 0.8999999999999999
    endloop
  endfacet
  facet normal 0.10844751044744323 0.9941021765783191 1.367245894011091e-17
    outer loop
      vertex -16.171487621963024 2.074145518243313 0
      vertex -5.408487051725388 0.8999999985098839 3
      vertex -5.408487051725388 0.8999999985098839 0
    endloop
  endfacet
  facet normal -0.1084475095462921 -0.9941021766766266 0
    outer loop
      vertex -7 -3.1463468596339226 0
      vertex -7 -3.1463468596339226 3
      vertex -7.424846215804904 -3.1 0.8999999999999999
    endloop
  endfacet
  facet normal 1 0 0
    outer loop
      vertex -2.25 -4.649999998509884 0
      vertex -2.25 -3.1 0.8999999999999999
      vertex -2.25 -3.1 3
    endloop
  endfacet
  facet normal 1 0 0
    outer loop
      vertex -2.25 -0.14999999850988388 0
      vertex -2.25 -0.14999999850988388 3
      vertex -2.25 -0.8999999999999999 0.8999999999999999
    endloop
  endfacet
  facet normal -0.38268342909620123 -0.9238795338653047 0
    outer loop
      vertex -28.148935690522194 -10.497218683362007 0
      vertex -28.148935690522194 -10.497218683362007 3
      vertex -28.453380048274994 -10.371113702654839 3
    endloop
  endfacet
  facet normal -0.5224985720805071 -0.8526401598410851 0
    outer loop
      vertex -28.453380048274994 -10.371113702654839 0
      vertex -28.453380048274994 -10.371113702654839 3
      vertex -28.73434902727604 -10.198935687541962 3
    endloop
  endfacet
  facet normal -0.8526401598410851 -0.5224985720805071 0
    outer loop
      vertex -29.19893568754196 -9.73434902727604 0
      vertex -29.19893568754196 -9.73434902727604 3
      vertex -29.37111370265484 -9.453380048274994 3
    endloop
  endfacet
  facet normal -0.9238795338653047 -0.38268342909620123 0
    outer loop
      vertex -29.37111370265484 -9.453380048274994 0
      vertex -29.37111370265484 -9.453380048274994 3
      vertex -29.497218683362007 -9.148935690522194 3
    endloop
  endfacet
  facet normal -0.6494480388109467 -0.7604059737302273 0
    outer loop
      vertex -28.73434902727604 -10.198935687541962 0
      vertex -28.73434902727604 -10.198935687541962 3
      vertex -28.984924241900444 -9.984924241900444 3
    endloop
  endfacet
  facet normal -0.7604059737302273 -0.6494480388109467 0
    outer loop
      vertex -28.984924241900444 -9.984924241900444 0
      vertex -28.984924241900444 -9.984924241900444 3
      vertex -29.19893568754196 -9.73434902727604 3
    endloop
  endfacet
  facet normal -0.23344537429863108 -0.9723699178906 0
    outer loop
      vertex -27.828512378036976 -10.574145518243313 0
      vertex -27.828512378036976 -10.574145518243313 3
      vertex -28.148935690522194 -10.497218683362007 3
    endloop
  endfacet
  facet normal -0.07845909084886164 -0.9969173341171123 0
    outer loop
      vertex -27.5 -10.600000001490116 0
      vertex -27.5 -10.600000001490116 3
      vertex -27.828512378036976 -10.574145518243313 3
    endloop
  endfacet
  facet normal 0.07845909084886164 -0.9969173341171123 0
    outer loop
      vertex -27.171487621963024 -10.574145518243313 0
      vertex -27.171487621963024 -10.574145518243313 3
      vertex -27.5 -10.600000001490116 3
    endloop
  endfacet
  facet normal 0.23344537429863108 -0.9723699178906 0
    outer loop
      vertex -26.851064309477806 -10.497218683362007 0
      vertex -26.851064309477806 -10.497218683362007 3
      vertex -27.171487621963024 -10.574145518243313 3
    endloop
  endfacet
  facet normal 0.38268342909620123 -0.9238795338653047 0
    outer loop
      vertex -26.546619951725006 -10.371113702654839 0
      vertex -26.546619951725006 -10.371113702654839 3
      vertex -26.851064309477806 -10.497218683362007 3
    endloop
  endfacet
  facet normal 0.5224985720805071 -0.8526401598410851 0
    outer loop
      vertex -26.26565097272396 -10.198935687541962 0
      vertex -26.26565097272396 -10.198935687541962 3
      vertex -26.546619951725006 -10.371113702654839 3
    endloop
  endfacet
  facet normal -0.9723699178906 -0.23344537429863108 0
    outer loop
      vertex -29.497218683362007 -9.148935690522194 0
      vertex -29.497218683362007 -9.148935690522194 3
      vertex -29.574145518243313 -8.828512378036976 3
    endloop
  endfacet
  facet normal -0.9969173341171123 -0.07845909084886164 0
    outer loop
      vertex -29.574145518243313 -8.828512378036976 0
      vertex -29.574145518243313 -8.828512378036976 3
      vertex -29.600000001490116 -8.5 3
    endloop
  endfacet
  facet normal -0.9969173341171123 0.07845909084886164 0
    outer loop
      vertex -29.600000001490116 -8.5 0
      vertex -29.600000001490116 -8.5 3
      vertex -29.574145518243313 -8.171487621963024 3
    endloop
  endfacet
  facet normal -0.9723699178906 0.23344537429863108 0
    outer loop
      vertex -29.574145518243313 -8.171487621963024 0
      vertex -29.574145518243313 -8.171487621963024 3
      vertex -29.497218683362007 -7.851064309477806 3
    endloop
  endfacet
  facet normal -0.9238795338653047 0.38268342909620123 0
    outer loop
      vertex -29.497218683362007 -7.851064309477806 0
      vertex -29.497218683362007 -7.851064309477806 3
      vertex -29.37111370265484 -7.546619951725006 3
    endloop
  endfacet
  facet normal -0.8526401598410851 0.5224985720805071 0
    outer loop
      vertex -29.37111370265484 -7.546619951725006 0
      vertex -29.37111370265484 -7.546619951725006 3
      vertex -29.19893568754196 -7.265650972723961 3
    endloop
  endfacet
  facet normal -0.7604059737302273 0.6494480388109467 0
    outer loop
      vertex -29.19893568754196 -7.265650972723961 0
      vertex -29.19893568754196 -7.265650972723961 3
      vertex -28.984924241900444 -7.015075758099556 3
    endloop
  endfacet
  facet normal -0.6494480388109467 0.7604059737302273 0
    outer loop
      vertex -28.984924241900444 -7.015075758099556 0
      vertex -28.984924241900444 -7.015075758099556 3
      vertex -28.73434902727604 -6.801064312458038 3
    endloop
  endfacet
  facet normal 0.6114475011242543 -0.7912850013546984 0
    outer loop
      vertex -17.078793025303792 -3.1 0.8999999999999999
      vertex -17.078793025303792 -3.1 3
      vertex -26.26565097272396 -10.198935687541962 3
    endloop
  endfacet
  facet normal 0 0 1
    outer loop
      vertex -27.828512378036976 -10.574145518243313 3
      vertex -27.5 -10.600000001490116 3
      vertex -28.73434902727604 -6.801064312458038 3
    endloop
  endfacet
  facet normal 0 0 1
    outer loop
      vertex -27.5 -10.600000001490116 3
      vertex -27.171487621963024 -10.574145518243313 3
      vertex -28.73434902727604 -6.801064312458038 3
    endloop
  endfacet
  facet normal 0 0 1
    outer loop
      vertex -29.19893568754196 -9.73434902727604 3
      vertex -29.19893568754196 -7.265650972723961 3
      vertex -29.37111370265484 -9.453380048274994 3
    endloop
  endfacet
  facet normal 0 0 1
    outer loop
      vertex -29.37111370265484 -9.453380048274994 3
      vertex -29.19893568754196 -7.265650972723961 3
      vertex -29.497218683362007 -9.148935690522194 3
    endloop
  endfacet
  facet normal 0 0 1
    outer loop
      vertex -28.73434902727604 -10.198935687541962 3
      vertex -28.453380048274994 -10.371113702654839 3
      vertex -28.73434902727604 -6.801064312458038 3
    endloop
  endfacet
  facet normal 0 0 1
    outer loop
      vertex -28.73434902727604 -10.198935687541962 3
      vertex -28.73434902727604 -6.801064312458038 3
      vertex -28.984924241900444 -9.984924241900444 3
    endloop
  endfacet
  facet normal 0 0 1
    outer loop
      vertex -28.453380048274994 -10.371113702654839 3
      vertex -28.148935690522194 -10.497218683362007 3
      vertex -28.73434902727604 -6.801064312458038 3
    endloop
  endfacet
  facet normal 0 0 1
    outer loop
      vertex -28.148935690522194 -10.497218683362007 3
      vertex -27.828512378036976 -10.574145518243313 3
      vertex -28.73434902727604 -6.801064312458038 3
    endloop
  endfacet
  facet normal 0 0 1
    outer loop
      vertex -29.19893568754196 -9.73434902727604 3
      vertex -28.984924241900444 -9.984924241900444 3
      vertex -28.73434902727604 -6.801064312458038 3
    endloop
  endfacet
  facet normal 0 0 1
    outer loop
      vertex -29.574145518243313 -8.828512378036976 3
      vertex -29.497218683362007 -7.851064309477806 3
      vertex -29.600000001490116 -8.5 3
    endloop
  endfacet
  facet normal 0 0 1
    outer loop
      vertex -29.600000001490116 -8.5 3
      vertex -29.497218683362007 -7.851064309477806 3
      vertex -29.574145518243313 -8.171487621963024 3
    endloop
  endfacet
  facet normal 0 0 1
    outer loop
      vertex -29.497218683362007 -9.148935690522194 3
      vertex -29.19893568754196 -7.265650972723961 3
      vertex -29.574145518243313 -8.828512378036976 3
    endloop
  endfacet
  facet normal 0 0 1
    outer loop
      vertex -29.574145518243313 -8.828512378036976 3
      vertex -29.37111370265484 -7.546619951725006 3
      vertex -29.497218683362007 -7.851064309477806 3
    endloop
  endfacet
  facet normal 0 0 1
    outer loop
      vertex -29.19893568754196 -9.73434902727604 3
      vertex -28.984924241900444 -7.015075758099556 3
      vertex -29.19893568754196 -7.265650972723961 3
    endloop
  endfacet
  facet normal 0 0 1
    outer loop
      vertex -29.574145518243313 -8.828512378036976 3
      vertex -29.19893568754196 -7.265650972723961 3
      vertex -29.37111370265484 -7.546619951725006 3
    endloop
  endfacet
  facet normal 0 0 1
    outer loop
      vertex -29.19893568754196 -9.73434902727604 3
      vertex -28.73434902727604 -6.801064312458038 3
      vertex -28.984924241900444 -7.015075758099556 3
    endloop
  endfacet
  facet normal 0 0 1
    outer loop
      vertex -27.171487621963024 -10.574145518243313 3
      vertex -26.851064309477806 -10.497218683362007 3
      vertex -28.73434902727604 -6.801064312458038 3
    endloop
  endfacet
  facet normal 0 0 1
    outer loop
      vertex -26.851064309477806 -10.497218683362007 3
      vertex -26.546619951725006 -10.371113702654839 3
      vertex -28.73434902727604 -6.801064312458038 3
    endloop
  endfacet
  facet normal 0 0 1
    outer loop
      vertex -26.546619951725006 -10.371113702654839 3
      vertex -26.26565097272396 -10.198935687541962 3
      vertex -28.73434902727604 -6.801064312458038 3
    endloop
  endfacet
  facet normal 0 0 1
    outer loop
      vertex -26.26565097272396 -10.198935687541962 3
      vertex -23.94473638762446 -3.1 3
      vertex -28.73434902727604 -6.801064312458038 3
    endloop
  endfacet
  facet normal 0 0 1
    outer loop
      vertex -26.26565097272396 -10.198935687541962 3
      vertex -17.078793025303792 -3.1 3
      vertex -23.94473638762446 -3.1 3
    endloop
  endfacet
  facet normal -0.6114475010757653 0.7912850013921671 0
    outer loop
      vertex -23.94473638762446 -3.1 0.8999999999999999
      vertex -28.73434902727604 -6.801064312458038 3
      vertex -23.94473638762446 -3.1 3
    endloop
  endfacet
  facet normal -0.6114475010757655 0.791285001392167 0
    outer loop
      vertex -17.73434902727604 1.6989356875419617 0
      vertex -21.097677564095047 -0.8999999999999999 3
      vertex -17.73434902727604 1.6989356875419617 3
    endloop
  endfacet
  facet normal -0.5224985720805071 0.8526401598410851 0
    outer loop
      vertex -17.73434902727604 1.6989356875419617 0
      vertex -17.73434902727604 1.6989356875419617 3
      vertex -17.453380048274994 1.8711137026548386 3
    endloop
  endfacet
  facet normal -0.38268342909620123 0.9238795338653047 0
    outer loop
      vertex -17.453380048274994 1.8711137026548386 0
      vertex -17.453380048274994 1.8711137026548386 3
      vertex -17.148935690522194 1.9972186833620071 3
    endloop
  endfacet
  facet normal -0.23344537429863108 0.9723699178906 0
    outer loop
      vertex -17.148935690522194 1.9972186833620071 0
      vertex -17.148935690522194 1.9972186833620071 3
      vertex -16.828512378036976 2.074145518243313 3
    endloop
  endfacet
  facet normal -0.07845909084886164 0.9969173341171123 0
    outer loop
      vertex -16.828512378036976 2.074145518243313 0
      vertex -16.828512378036976 2.074145518243313 3
      vertex -16.5 2.100000001490116 3
    endloop
  endfacet
  facet normal 0.07845909084886164 0.9969173341171123 0
    outer loop
      vertex -16.5 2.100000001490116 0
      vertex -16.5 2.100000001490116 3
      vertex -16.171487621963024 2.074145518243313 3
    endloop
  endfacet
  facet normal 0 0 1
    outer loop
      vertex -21.097677564095047 -0.8999999999999999 3
      vertex -9.5 -0.8 3
      vertex -17.73434902727604 1.6989356875419617 3
    endloop
  endfacet
  facet normal -1 0 0
    outer loop
      vertex -7 -10.200000002980232 0
      vertex -7 -10.200000002980232 3
      vertex -7 -3.1463468596339226 3
    endloop
  endfacet
  facet normal 0 0 1
    outer loop
      vertex -7 -10.200000002980232 3
      vertex 7 -10.200000002980232 3
      vertex -7 -3.1463468596339226 3
    endloop
  endfacet
  facet normal 0 0 1
    outer loop
      vertex -2.25 -4.649999998509884 3
      vertex -7 -3.1463468596339226 3
      vertex 7 -10.200000002980232 3
    endloop
  endfacet
  facet normal 0.10844751044744323 0.9941021765783191 0
    outer loop
      vertex -16.171487621963024 2.074145518243313 0
      vertex -16.171487621963024 2.074145518243313 3
      vertex -5.408487051725388 0.8999999985098839 3
    endloop
  endfacet
  facet normal -0.1084475095462921 -0.9941021766766267 0
    outer loop
      vertex -7.424846215804904 -3.1 0.8999999999999999
      vertex -7 -3.1463468596339226 3
      vertex -7.424846215804904 -3.1 3
    endloop
  endfacet
  facet normal 1 0 0
    outer loop
      vertex -2.25 -4.649999998509884 0
      vertex -2.25 -3.1 3
      vertex -2.25 -4.649999998509884 3
    endloop
  endfacet
  facet normal 0 -1 0
    outer loop
      vertex -2.25 -0.14999999850988388 0
      vertex 2.25 -0.14999999850988388 3
      vertex -2.25 -0.14999999850988388 3
    endloop
  endfacet
  facet normal 1 0 0
    outer loop
      vertex -2.25 -0.8999999999999999 0.8999999999999999
      vertex -2.25 -0.14999999850988388 3
      vertex -2.25 -0.8999999999999999 3
    endloop
  endfacet
  facet normal 0 1 0
    outer loop
      vertex -5.408487051725388 0.8999999985098839 0
      vertex -5.408487051725388 0.8999999985098839 3
      vertex 5.408487051725388 0.8999999985098839 3
    endloop
  endfacet
  facet normal 0 0 1
    outer loop
      vertex -21.097677564095047 -0.8999999999999999 3
      vertex -6.5 -0.8 3
      vertex -9.5 -0.8 3
    endloop
  endfacet
  facet normal 0 0 1
    outer loop
      vertex -17.73434902727604 1.6989356875419617 3
      vertex -9.5 0.8 3
      vertex -17.453380048274994 1.8711137026548386 3
    endloop
  endfacet
  facet normal 0 0 1
    outer loop
      vertex -17.453380048274994 1.8711137026548386 3
      vertex -9.5 0.8 3
      vertex -17.148935690522194 1.9972186833620071 3
    endloop
  endfacet
  facet normal 0 0 1
    outer loop
      vertex -17.148935690522194 1.9972186833620071 3
      vertex -9.5 0.8 3
      vertex -16.828512378036976 2.074145518243313 3
    endloop
  endfacet
  facet normal 0 0 1
    outer loop
      vertex -16.828512378036976 2.074145518243313 3
      vertex -9.5 0.8 3
      vertex -16.5 2.100000001490116 3
    endloop
  endfacet
  facet normal 0 0 1
    outer loop
      vertex -16.5 2.100000001490116 3
      vertex -9.5 0.8 3
      vertex -16.171487621963024 2.074145518243313 3
    endloop
  endfacet
  facet normal 0 0 1
    outer loop
      vertex -17.73434902727604 1.6989356875419617 3
      vertex -9.5 -0.8 3
      vertex -9.5 0.8 3
    endloop
  endfacet
  facet normal 0 0 1
    outer loop
      vertex -21.097677564095047 -0.8999999999999999 3
      vertex -5.5 -0.8999999999999999 3
      vertex -6.5 -0.8 3
    endloop
  endfacet
  facet normal 0 0 1
    outer loop
      vertex -16.171487621963024 2.074145518243313 3
      vertex -9.5 0.8 3
      vertex -5.408487051725388 0.8999999985098839 3
    endloop
  endfacet
  facet normal 0 0 1
    outer loop
      vertex -7.424846215804904 -3.1 3
      vertex -7 -3.1463468596339226 3
      vertex -5.5 -3.1 3
    endloop
  endfacet
  facet normal 0 0 1
    outer loop
      vertex -2.25 -4.649999998509884 3
      vertex -5.5 -3.1 3
      vertex -7 -3.1463468596339226 3
    endloop
  endfacet
  facet normal 0 0 1
    outer loop
      vertex -2.25 -4.649999998509884 3
      vertex -2.25 -3.1 3
      vertex -5.5 -3.1 3
    endloop
  endfacet
  facet normal 0 0 1
    outer loop
      vertex -5.5 -0.8999999999999999 3
      vertex -5.408487051725388 0.8999999985098839 3
      vertex -6.5 -0.8 3
    endloop
  endfacet
  facet normal 0 0 1
    outer loop
      vertex -5.408487051725388 0.8999999985098839 3
      vertex -6.5 0.8 3
      vertex -6.5 -0.8 3
    endloop
  endfacet
  facet normal 0 0 1
    outer loop
      vertex -5.5 -0.8999999999999999 3
      vertex -2.25 -0.8999999999999999 3
      vertex -5.408487051725388 0.8999999985098839 3
    endloop
  endfacet
  facet normal 0 0 1
    outer loop
      vertex -5.408487051725388 0.8999999985098839 3
      vertex -9.5 0.8 3
      vertex -6.5 0.8 3
    endloop
  endfacet
  facet normal 0 0 1
    outer loop
      vertex -5.408487051725388 0.8999999985098839 3
      vertex -2.25 -0.8999999999999999 3
      vertex -2.25 -0.14999999850988388 3
    endloop
  endfacet
  facet normal 0 0 1
    outer loop
      vertex -5.408487051725388 0.8999999985098839 3
      vertex -2.25 -0.14999999850988388 3
      vertex 5.408487051725388 0.8999999985098839 3
    endloop
  endfacet
  facet normal 0 0 -1
    outer loop
      vertex -2.25 -4.649999998509884 0
      vertex 2.25 -4.649999998509884 0
      vertex 7 -10.200000002980232 0
    endloop
  endfacet
  facet normal 0 0 -1
    outer loop
      vertex 7 -10.200000002980232 0
      vertex 2.25 -4.649999998509884 0
      vertex 7 -3.1463468596339226 0
    endloop
  endfacet
  facet normal 1 0 0
    outer loop
      vertex 7 -10.200000002980232 0
      vertex 7 -3.1463468596339226 0
      vertex 7 -10.200000002980232 3
    endloop
  endfacet
  facet normal -1 0 0
    outer loop
      vertex 2.25 -4.649999998509884 0
      vertex 2.25 -0.8999999999999999 0.8999999999999999
      vertex 2.25 -0.14999999850988388 0
    endloop
  endfacet
  facet normal -1 0 0
    outer loop
      vertex 2.25 -4.649999998509884 0
      vertex 2.25 -3.1 0.8999999999999999
      vertex 2.25 -2.7125 0.8999999999999999
    endloop
  endfacet
  facet normal -1 0 0
    outer loop
      vertex 2.25 -4.649999998509884 0
      vertex 2.25 -2.7125 0.8999999999999999
      vertex 2.25 -2.2249999999999996 0.8999999999999999
    endloop
  endfacet
  facet normal -1 0 0
    outer loop
      vertex 2.25 -4.649999998509884 0
      vertex 2.25 -2.2249999999999996 0.8999999999999999
      vertex 2.25 -0.8999999999999999 0.8999999999999999
    endloop
  endfacet
  facet normal 0 0 -1
    outer loop
      vertex -2.25 -0.14999999850988388 0
      vertex 5.408487051725388 0.8999999985098839 0
      vertex 2.25 -0.14999999850988388 0
    endloop
  endfacet
  facet normal 0.10844750954629212 -0.9941021766766266 -1.2527286581554071e-17
    outer loop
      vertex 7 -3.1463468596339226 0
      vertex 15.884490333497524 -2.177129738032818 0
      vertex 7.424846215804904 -3.1 0.8999999999999999
    endloop
  endfacet
  facet normal 0 0 -1
    outer loop
      vertex 2.25 -4.649999998509884 0
      vertex 17.73434902727604 1.6989356875419617 0
      vertex 7 -3.1463468596339226 0
    endloop
  endfacet
  facet normal 0 0 -1
    outer loop
      vertex 7 -3.1463468596339226 0
      vertex 17.73434902727604 1.6989356875419617 0
      vertex 15.884490333497524 -2.177129738032818 0
    endloop
  endfacet
  facet normal 0.10844750954629213 -0.9941021766766267 4.149405441087809e-17
    outer loop
      vertex 7.424846215804904 -3.1 0.8999999999999999
      vertex 15.884490333497524 -2.177129738032818 0
      vertex 15.884490333497524 -2.177129738032818 0.8999999999999999
    endloop
  endfacet
  facet normal 0 0 -1
    outer loop
      vertex 2.25 -4.649999998509884 0
      vertex 2.25 -0.14999999850988388 0
      vertex 17.73434902727604 1.6989356875419617 0
    endloop
  endfacet
  facet normal 0 0 -1
    outer loop
      vertex 2.25 -0.14999999850988388 0
      vertex 5.408487051725388 0.8999999985098839 0
      vertex 16.171487621963024 2.074145518243313 0
    endloop
  endfacet
  facet normal 0 0 -1
    outer loop
      vertex 2.25 -0.14999999850988388 0
      vertex 17.148935690522194 1.9972186833620071 0
      vertex 17.453380048274994 1.8711137026548386 0
    endloop
  endfacet
  facet normal 0 0 -1
    outer loop
      vertex 2.25 -0.14999999850988388 0
      vertex 17.453380048274994 1.8711137026548386 0
      vertex 17.73434902727604 1.6989356875419617 0
    endloop
  endfacet
  facet normal 0 0 -1
    outer loop
      vertex 2.25 -0.14999999850988388 0
      vertex 16.171487621963024 2.074145518243313 0
      vertex 16.5 2.100000001490116 0
    endloop
  endfacet
  facet normal 0 0 -1
    outer loop
      vertex 2.25 -0.14999999850988388 0
      vertex 16.5 2.100000001490116 0
      vertex 16.828512378036976 2.074145518243313 0
    endloop
  endfacet
  facet normal 0 0 -1
    outer loop
      vertex 2.25 -0.14999999850988388 0
      vertex 16.828512378036976 2.074145518243313 0
      vertex 17.148935690522194 1.9972186833620071 0
    endloop
  endfacet
  facet normal -1 0 0
    outer loop
      vertex 2.25 -4.649999998509884 0
      vertex 2.25 -4.649999998509884 3
      vertex 2.25 -3.1 0.8999999999999999
    endloop
  endfacet
  facet normal 0.1084475095462921 -0.9941021766766266 0
    outer loop
      vertex 7 -3.1463468596339226 0
      vertex 7.424846215804904 -3.1 0.8999999999999999
      vertex 7 -3.1463468596339226 3
    endloop
  endfacet
  facet normal 0 -1 0
    outer loop
      vertex -2.25 -0.14999999850988388 0
      vertex 2.25 -0.14999999850988388 0
      vertex 2.25 -0.14999999850988388 3
    endloop
  endfacet
  facet normal -1 0 0
    outer loop
      vertex 2.25 -0.14999999850988388 0
      vertex 2.25 -0.8999999999999999 0.8999999999999999
      vertex 2.25 -0.14999999850988388 3
    endloop
  endfacet
  facet normal 0 1 0
    outer loop
      vertex -5.408487051725388 0.8999999985098839 0
      vertex 5.408487051725388 0.8999999985098839 3
      vertex 5.408487051725388 0.8999999985098839 0
    endloop
  endfacet
  facet normal -0.10844751044744323 0.9941021765783191 -1.367245894011091e-17
    outer loop
      vertex 5.408487051725388 0.8999999985098839 0
      vertex 16.171487621963024 2.074145518243313 3
      vertex 16.171487621963024 2.074145518243313 0
    endloop
  endfacet
  facet normal -0.6114475011242543 -0.7912850013546983 -2.7738103145805767e-16
    outer loop
      vertex 26.26565097272396 -10.198935687541962 0
      vertex 15.884490333497524 -2.177129738032818 0.8999999999999999
      vertex 15.884490333497524 -2.177129738032818 0
    endloop
  endfacet
  facet normal -0.611447501124254 -0.7912850013546987 9.503284998332248e-15
    outer loop
      vertex 26.26565097272396 -10.198935687541962 0
      vertex 17.078793025303792 -3.1 0.8999999999999999
      vertex 15.884490333497524 -2.177129738032818 0.8999999999999999
    endloop
  endfacet
  facet normal 0 0 -1
    outer loop
      vertex 26.546619951725006 -10.371113702654839 0
      vertex 29.19893568754196 -9.73434902727604 0
      vertex 26.851064309477806 -10.497218683362007 0
    endloop
  endfacet
  facet normal 0 0 -1
    outer loop
      vertex 26.26565097272396 -10.198935687541962 0
      vertex 29.19893568754196 -9.73434902727604 0
      vertex 26.546619951725006 -10.371113702654839 0
    endloop
  endfacet
  facet normal 0 0 -1
    outer loop
      vertex 27.171487621963024 -10.574145518243313 0
      vertex 26.851064309477806 -10.497218683362007 0
      vertex 29.19893568754196 -9.73434902727604 0
    endloop
  endfacet
  facet normal 0 0 -1
    outer loop
      vertex 27.171487621963024 -10.574145518243313 0
      vertex 29.19893568754196 -9.73434902727604 0
      vertex 27.5 -10.600000001490116 0
    endloop
  endfacet
  facet normal 0 0 -1
    outer loop
      vertex 27.5 -10.600000001490116 0
      vertex 29.19893568754196 -9.73434902727604 0
      vertex 27.828512378036976 -10.574145518243313 0
    endloop
  endfacet
  facet normal 0 0 -1
    outer loop
      vertex 27.828512378036976 -10.574145518243313 0
      vertex 29.19893568754196 -9.73434902727604 0
      vertex 28.148935690522194 -10.497218683362007 0
    endloop
  endfacet
  facet normal 0 0 -1
    outer loop
      vertex 28.148935690522194 -10.497218683362007 0
      vertex 29.19893568754196 -9.73434902727604 0
      vertex 28.453380048274994 -10.371113702654839 0
    endloop
  endfacet
  facet normal 0 0 -1
    outer loop
      vertex 26.26565097272396 -10.198935687541962 0
      vertex 29.37111370265484 -9.453380048274994 0
      vertex 29.19893568754196 -9.73434902727604 0
    endloop
  endfacet
  facet normal 0 0 -1
    outer loop
      vertex 26.26565097272396 -10.198935687541962 0
      vertex 29.497218683362007 -9.148935690522194 0
      vertex 29.37111370265484 -9.453380048274994 0
    endloop
  endfacet
  facet normal 0 0 -1
    outer loop
      vertex 26.26565097272396 -10.198935687541962 0
      vertex 29.574145518243313 -8.828512378036976 0
      vertex 29.497218683362007 -9.148935690522194 0
    endloop
  endfacet
  facet normal 0 0 -1
    outer loop
      vertex 28.453380048274994 -10.371113702654839 0
      vertex 29.19893568754196 -9.73434902727604 0
      vertex 28.73434902727604 -10.198935687541962 0
    endloop
  endfacet
  facet normal 0 0 -1
    outer loop
      vertex 28.73434902727604 -10.198935687541962 0
      vertex 29.19893568754196 -9.73434902727604 0
      vertex 28.984924241900444 -9.984924241900444 0
    endloop
  endfacet
  facet normal 0 0 -1
    outer loop
      vertex 26.26565097272396 -10.198935687541962 0
      vertex 29.600000001490116 -8.5 0
      vertex 29.574145518243313 -8.828512378036976 0
    endloop
  endfacet
  facet normal 0 0 -1
    outer loop
      vertex 26.26565097272396 -10.198935687541962 0
      vertex 29.574145518243313 -8.171487621963024 0
      vertex 29.600000001490116 -8.5 0
    endloop
  endfacet
  facet normal 0 0 -1
    outer loop
      vertex 26.26565097272396 -10.198935687541962 0
      vertex 29.497218683362007 -7.851064309477806 0
      vertex 29.574145518243313 -8.171487621963024 0
    endloop
  endfacet
  facet normal 0 0 -1
    outer loop
      vertex 26.26565097272396 -10.198935687541962 0
      vertex 29.37111370265484 -7.546619951725006 0
      vertex 29.497218683362007 -7.851064309477806 0
    endloop
  endfacet
  facet normal 0 0 -1
    outer loop
      vertex 26.26565097272396 -10.198935687541962 0
      vertex 28.984924241900444 -7.015075758099556 0
      vertex 29.19893568754196 -7.265650972723961 0
    endloop
  endfacet
  facet normal 0 0 -1
    outer loop
      vertex 26.26565097272396 -10.198935687541962 0
      vertex 29.19893568754196 -7.265650972723961 0
      vertex 29.37111370265484 -7.546619951725006 0
    endloop
  endfacet
  facet normal 0 0 -1
    outer loop
      vertex 26.26565097272396 -10.198935687541962 0
      vertex 28.73434902727604 -6.801064312458038 0
      vertex 28.984924241900444 -7.015075758099556 0
    endloop
  endfacet
  facet normal 0 0 -1
    outer loop
      vertex 26.26565097272396 -10.198935687541962 0
      vertex 15.884490333497524 -2.177129738032818 0
      vertex 28.73434902727604 -6.801064312458038 0
    endloop
  endfacet
  facet normal -0.6114475011242543 -0.7912850013546983 0
    outer loop
      vertex 26.26565097272396 -10.198935687541962 0
      vertex 26.26565097272396 -10.198935687541962 3
      vertex 17.078793025303792 -3.1 0.8999999999999999
    endloop
  endfacet
  facet normal -0.38268342909620123 -0.9238795338653047 0
    outer loop
      vertex 26.546619951725006 -10.371113702654839 0
      vertex 26.851064309477806 -10.497218683362007 0
      vertex 26.546619951725006 -10.371113702654839 3
    endloop
  endfacet
  facet normal -0.5224985720805071 -0.8526401598410851 0
    outer loop
      vertex 26.26565097272396 -10.198935687541962 0
      vertex 26.546619951725006 -10.371113702654839 0
      vertex 26.26565097272396 -10.198935687541962 3
    endloop
  endfacet
  facet normal -0.07845909084886164 -0.9969173341171123 0
    outer loop
      vertex 27.171487621963024 -10.574145518243313 0
      vertex 27.5 -10.600000001490116 0
      vertex 27.171487621963024 -10.574145518243313 3
    endloop
  endfacet
  facet normal 0.07845909084886164 -0.9969173341171123 0
    outer loop
      vertex 27.5 -10.600000001490116 0
      vertex 27.828512378036976 -10.574145518243313 0
      vertex 27.5 -10.600000001490116 3
    endloop
  endfacet
  facet normal -0.23344537429863108 -0.9723699178906 0
    outer loop
      vertex 27.171487621963024 -10.574145518243313 0
      vertex 26.851064309477806 -10.497218683362007 3
      vertex 26.851064309477806 -10.497218683362007 0
    endloop
  endfacet
  facet normal 0.23344537429863108 -0.9723699178906 0
    outer loop
      vertex 27.828512378036976 -10.574145518243313 0
      vertex 28.148935690522194 -10.497218683362007 0
      vertex 27.828512378036976 -10.574145518243313 3
    endloop
  endfacet
  facet normal 0.38268342909620123 -0.9238795338653047 0
    outer loop
      vertex 28.148935690522194 -10.497218683362007 0
      vertex 28.453380048274994 -10.371113702654839 0
      vertex 28.148935690522194 -10.497218683362007 3
    endloop
  endfacet
  facet normal 0.5224985720805071 -0.8526401598410851 0
    outer loop
      vertex 28.453380048274994 -10.371113702654839 0
      vertex 28.73434902727604 -10.198935687541962 0
      vertex 28.453380048274994 -10.371113702654839 3
    endloop
  endfacet
  facet normal 0.6494480388109467 -0.7604059737302273 0
    outer loop
      vertex 28.73434902727604 -10.198935687541962 0
      vertex 28.984924241900444 -9.984924241900444 0
      vertex 28.73434902727604 -10.198935687541962 3
    endloop
  endfacet
  facet normal 0.7604059737302273 -0.6494480388109467 0
    outer loop
      vertex 28.984924241900444 -9.984924241900444 0
      vertex 29.19893568754196 -9.73434902727604 0
      vertex 28.984924241900444 -9.984924241900444 3
    endloop
  endfacet
  facet normal 0.8526401598410851 -0.5224985720805071 0
    outer loop
      vertex 29.19893568754196 -9.73434902727604 0
      vertex 29.37111370265484 -9.453380048274994 0
      vertex 29.19893568754196 -9.73434902727604 3
    endloop
  endfacet
  facet normal 0.9238795338653047 -0.38268342909620123 0
    outer loop
      vertex 29.37111370265484 -9.453380048274994 0
      vertex 29.497218683362007 -9.148935690522194 0
      vertex 29.37111370265484 -9.453380048274994 3
    endloop
  endfacet
  facet normal 0.9723699178906 -0.23344537429863108 0
    outer loop
      vertex 29.497218683362007 -9.148935690522194 0
      vertex 29.574145518243313 -8.828512378036976 0
      vertex 29.497218683362007 -9.148935690522194 3
    endloop
  endfacet
  facet normal 0.9969173341171123 -0.07845909084886164 0
    outer loop
      vertex 29.574145518243313 -8.828512378036976 0
      vertex 29.600000001490116 -8.5 0
      vertex 29.574145518243313 -8.828512378036976 3
    endloop
  endfacet
  facet normal 0.9969173341171123 0.07845909084886164 0
    outer loop
      vertex 29.600000001490116 -8.5 0
      vertex 29.574145518243313 -8.171487621963024 0
      vertex 29.600000001490116 -8.5 3
    endloop
  endfacet
  facet normal 0.9723699178906 0.23344537429863108 0
    outer loop
      vertex 29.574145518243313 -8.171487621963024 0
      vertex 29.497218683362007 -7.851064309477806 0
      vertex 29.574145518243313 -8.171487621963024 3
    endloop
  endfacet
  facet normal 0.9238795338653047 0.38268342909620123 0
    outer loop
      vertex 29.497218683362007 -7.851064309477806 0
      vertex 29.37111370265484 -7.546619951725006 0
      vertex 29.497218683362007 -7.851064309477806 3
    endloop
  endfacet
  facet normal 0.8526401598410851 0.5224985720805071 0
    outer loop
      vertex 29.37111370265484 -7.546619951725006 0
      vertex 29.19893568754196 -7.265650972723961 0
      vertex 29.37111370265484 -7.546619951725006 3
    endloop
  endfacet
  facet normal 0.7604059737302273 0.6494480388109467 0
    outer loop
      vertex 28.984924241900444 -7.015075758099556 0
      vertex 29.19893568754196 -7.265650972723961 3
      vertex 29.19893568754196 -7.265650972723961 0
    endloop
  endfacet
  facet normal 0.6494480388109467 0.7604059737302273 0
    outer loop
      vertex 28.984924241900444 -7.015075758099556 0
      vertex 28.73434902727604 -6.801064312458038 0
      vertex 28.984924241900444 -7.015075758099556 3
    endloop
  endfacet
  facet normal 0 0 -1
    outer loop
      vertex 28.73434902727604 -6.801064312458038 0
      vertex 15.884490333497524 -2.177129738032818 0
      vertex 17.73434902727604 1.6989356875419617 0
    endloop
  endfacet
  facet normal 0.6114475010757654 0.791285001392167 9.93861784743908e-16
    outer loop
      vertex 28.73434902727604 -6.801064312458038 0
      vertex 17.73434902727604 1.6989356875419617 0
      vertex 21.097677564095047 -0.8999999999999999 0.8999999999999999
    endloop
  endfacet
  facet normal 0.6114475010757653 0.7912850013921672 -8.712803978820883e-16
    outer loop
      vertex 28.73434902727604 -6.801064312458038 0
      vertex 21.097677564095047 -0.8999999999999999 0.8999999999999999
      vertex 23.94473638762446 -3.1 0.8999999999999999
    endloop
  endfacet
  facet normal -0.07845909084886164 0.9969173341171123 0
    outer loop
      vertex 16.171487621963024 2.074145518243313 0
      vertex 16.5 2.100000001490116 3
      vertex 16.5 2.100000001490116 0
    endloop
  endfacet
  facet normal 0.07845909084886164 0.9969173341171123 0
    outer loop
      vertex 16.5 2.100000001490116 0
      vertex 16.828512378036976 2.074145518243313 3
      vertex 16.828512378036976 2.074145518243313 0
    endloop
  endfacet
  facet normal 0.23344537429863108 0.9723699178906 0
    outer loop
      vertex 16.828512378036976 2.074145518243313 0
      vertex 17.148935690522194 1.9972186833620071 3
      vertex 17.148935690522194 1.9972186833620071 0
    endloop
  endfacet
  facet normal 0.38268342909620123 0.9238795338653047 0
    outer loop
      vertex 17.453380048274994 1.8711137026548386 0
      vertex 17.148935690522194 1.9972186833620071 0
      vertex 17.453380048274994 1.8711137026548386 3
    endloop
  endfacet
  facet normal 0.5224985720805071 0.8526401598410851 0
    outer loop
      vertex 17.453380048274994 1.8711137026548386 0
      vertex 17.73434902727604 1.6989356875419617 3
      vertex 17.73434902727604 1.6989356875419617 0
    endloop
  endfacet
  facet normal 0.6114475010757655 0.791285001392167 0
    outer loop
      vertex 17.73434902727604 1.6989356875419617 0
      vertex 17.73434902727604 1.6989356875419617 3
      vertex 21.097677564095047 -0.8999999999999999 0.8999999999999999
    endloop
  endfacet
  facet normal 0.6114475010757653 0.7912850013921671 -8.759395046243226e-17
    outer loop
      vertex 28.73434902727604 -6.801064312458038 0
      vertex 23.94473638762446 -3.1 0.8999999999999999
      vertex 23.94473638762446 -3.1 3
    endloop
  endfacet
  facet normal 0 -1 0
    outer loop
      vertex -7 -10.200000002980232 3
      vertex 7 -10.200000002980232 0
      vertex 7 -10.200000002980232 3
    endloop
  endfacet
  facet normal 0 1 0
    outer loop
      vertex -2.25 -4.649999998509884 3
      vertex 2.25 -4.649999998509884 3
      vertex 2.25 -4.649999998509884 0
    endloop
  endfacet
  facet normal 1 0 0
    outer loop
      vertex 7 -3.1463468596339226 0
      vertex 7 -3.1463468596339226 3
      vertex 7 -10.200000002980232 3
    endloop
  endfacet
  facet normal 0 0 1
    outer loop
      vertex -2.25 -4.649999998509884 3
      vertex 7 -10.200000002980232 3
      vertex 2.25 -4.649999998509884 3
    endloop
  endfacet
  facet normal 0 0 1
    outer loop
      vertex 7 -10.200000002980232 3
      vertex 7 -3.1463468596339226 3
      vertex 2.25 -4.649999998509884 3
    endloop
  endfacet
  facet normal -1 0 0
    outer loop
      vertex 2.25 -3.1 0.8999999999999999
      vertex 2.25 -4.649999998509884 3
      vertex 2.25 -3.1 3
    endloop
  endfacet
  facet normal -1 0 0
    outer loop
      vertex 2.25 -0.8999999999999999 0.8999999999999999
      vertex 2.25 -0.8999999999999999 3
      vertex 2.25 -0.14999999850988388 3
    endloop
  endfacet
  facet normal 0.1084475095462921 -0.9941021766766267 0
    outer loop
      vertex 7.424846215804904 -3.1 0.8999999999999999
      vertex 7.424846215804904 -3.1 3
      vertex 7 -3.1463468596339226 3
    endloop
  endfacet
  facet normal -0.10844751044744323 0.9941021765783191 0
    outer loop
      vertex 5.408487051725388 0.8999999985098839 0
      vertex 5.408487051725388 0.8999999985098839 3
      vertex 16.171487621963024 2.074145518243313 3
    endloop
  endfacet
  facet normal 0 0 1
    outer loop
      vertex 2.25 -4.649999998509884 3
      vertex 7 -3.1463468596339226 3
      vertex 2.25 -3.1 3
    endloop
  endfacet
  facet normal 0 0 1
    outer loop
      vertex 2.25 -3.1 3
      vertex 7 -3.1463468596339226 3
      vertex 7.424846215804904 -3.1 3
    endloop
  endfacet
  facet normal 0 0 1
    outer loop
      vertex -2.25 -0.14999999850988388 3
      vertex 2.25 -0.14999999850988388 3
      vertex 5.408487051725388 0.8999999985098839 3
    endloop
  endfacet
  facet normal 0 0 1
    outer loop
      vertex 2.25 -0.8999999999999999 3
      vertex 6.5 0.8 3
      vertex 2.25 -0.14999999850988388 3
    endloop
  endfacet
  facet normal 0 0 1
    outer loop
      vertex 2.25 -0.8999999999999999 3
      vertex 6.5 -0.8 3
      vertex 6.5 0.8 3
    endloop
  endfacet
  facet normal 0 0 1
    outer loop
      vertex 2.25 -0.14999999850988388 3
      vertex 6.5 0.8 3
      vertex 5.408487051725388 0.8999999985098839 3
    endloop
  endfacet
  facet normal 0 0 1
    outer loop
      vertex 2.25 -0.8999999999999999 3
      vertex 21.097677564095047 -0.8999999999999999 3
      vertex 6.5 -0.8 3
    endloop
  endfacet
  facet normal 0 0 1
    outer loop
      vertex 5.408487051725388 0.8999999985098839 3
      vertex 6.5 0.8 3
      vertex 16.171487621963024 2.074145518243313 3
    endloop
  endfacet
  facet normal 0 0 1
    outer loop
      vertex 16.171487621963024 2.074145518243313 3
      vertex 6.5 0.8 3
      vertex 9.5 0.8 3
    endloop
  endfacet
  facet normal 0 0 1
    outer loop
      vertex 21.097677564095047 -0.8999999999999999 3
      vertex 9.5 -0.8 3
      vertex 6.5 -0.8 3
    endloop
  endfacet
  facet normal 0 0 1
    outer loop
      vertex 17.453380048274994 1.8711137026548386 3
      vertex 9.5 0.8 3
      vertex 9.5 -0.8 3
    endloop
  endfacet
  facet normal 0 0 1
    outer loop
      vertex 16.171487621963024 2.074145518243313 3
      vertex 9.5 0.8 3
      vertex 16.5 2.100000001490116 3
    endloop
  endfacet
  facet normal 0 0 1
    outer loop
      vertex 16.5 2.100000001490116 3
      vertex 9.5 0.8 3
      vertex 16.828512378036976 2.074145518243313 3
    endloop
  endfacet
  facet normal 0 0 1
    outer loop
      vertex 16.828512378036976 2.074145518243313 3
      vertex 9.5 0.8 3
      vertex 17.148935690522194 1.9972186833620071 3
    endloop
  endfacet
  facet normal -0.6114475011242543 -0.7912850013546984 0
    outer loop
      vertex 17.078793025303792 -3.1 0.8999999999999999
      vertex 26.26565097272396 -10.198935687541962 3
      vertex 17.078793025303792 -3.1 3
    endloop
  endfacet
  facet normal -0.38268342909620123 -0.9238795338653047 0
    outer loop
      vertex 26.851064309477806 -10.497218683362007 0
      vertex 26.851064309477806 -10.497218683362007 3
      vertex 26.546619951725006 -10.371113702654839 3
    endloop
  endfacet
  facet normal -0.5224985720805071 -0.8526401598410851 0
    outer loop
      vertex 26.546619951725006 -10.371113702654839 0
      vertex 26.546619951725006 -10.371113702654839 3
      vertex 26.26565097272396 -10.198935687541962 3
    endloop
  endfacet
  facet normal -0.23344537429863108 -0.9723699178906 0
    outer loop
      vertex 27.171487621963024 -10.574145518243313 0
      vertex 27.171487621963024 -10.574145518243313 3
      vertex 26.851064309477806 -10.497218683362007 3
    endloop
  endfacet
  facet normal -0.07845909084886164 -0.9969173341171123 0
    outer loop
      vertex 27.5 -10.600000001490116 0
      vertex 27.5 -10.600000001490116 3
      vertex 27.171487621963024 -10.574145518243313 3
    endloop
  endfacet
  facet normal 0.07845909084886164 -0.9969173341171123 0
    outer loop
      vertex 27.828512378036976 -10.574145518243313 0
      vertex 27.828512378036976 -10.574145518243313 3
      vertex 27.5 -10.600000001490116 3
    endloop
  endfacet
  facet normal 0.23344537429863108 -0.9723699178906 0
    outer loop
      vertex 28.148935690522194 -10.497218683362007 0
      vertex 28.148935690522194 -10.497218683362007 3
      vertex 27.828512378036976 -10.574145518243313 3
    endloop
  endfacet
  facet normal 0.38268342909620123 -0.9238795338653047 0
    outer loop
      vertex 28.453380048274994 -10.371113702654839 0
      vertex 28.453380048274994 -10.371113702654839 3
      vertex 28.148935690522194 -10.497218683362007 3
    endloop
  endfacet
  facet normal 0.5224985720805071 -0.8526401598410851 0
    outer loop
      vertex 28.73434902727604 -10.198935687541962 0
      vertex 28.73434902727604 -10.198935687541962 3
      vertex 28.453380048274994 -10.371113702654839 3
    endloop
  endfacet
  facet normal 0.6494480388109467 -0.7604059737302273 0
    outer loop
      vertex 28.984924241900444 -9.984924241900444 0
      vertex 28.984924241900444 -9.984924241900444 3
      vertex 28.73434902727604 -10.198935687541962 3
    endloop
  endfacet
  facet normal 0.7604059737302273 -0.6494480388109467 0
    outer loop
      vertex 29.19893568754196 -9.73434902727604 0
      vertex 29.19893568754196 -9.73434902727604 3
      vertex 28.984924241900444 -9.984924241900444 3
    endloop
  endfacet
  facet normal 0.8526401598410851 -0.5224985720805071 0
    outer loop
      vertex 29.37111370265484 -9.453380048274994 0
      vertex 29.37111370265484 -9.453380048274994 3
      vertex 29.19893568754196 -9.73434902727604 3
    endloop
  endfacet
  facet normal 0.9238795338653047 -0.38268342909620123 0
    outer loop
      vertex 29.497218683362007 -9.148935690522194 0
      vertex 29.497218683362007 -9.148935690522194 3
      vertex 29.37111370265484 -9.453380048274994 3
    endloop
  endfacet
  facet normal 0.9723699178906 -0.23344537429863108 0
    outer loop
      vertex 29.574145518243313 -8.828512378036976 0
      vertex 29.574145518243313 -8.828512378036976 3
      vertex 29.497218683362007 -9.148935690522194 3
    endloop
  endfacet
  facet normal 0.9969173341171123 -0.07845909084886164 0
    outer loop
      vertex 29.600000001490116 -8.5 0
      vertex 29.600000001490116 -8.5 3
      vertex 29.574145518243313 -8.828512378036976 3
    endloop
  endfacet
  facet normal 0.9969173341171123 0.07845909084886164 0
    outer loop
      vertex 29.574145518243313 -8.171487621963024 0
      vertex 29.574145518243313 -8.171487621963024 3
      vertex 29.600000001490116 -8.5 3
    endloop
  endfacet
  facet normal 0.9723699178906 0.23344537429863108 0
    outer loop
      vertex 29.497218683362007 -7.851064309477806 0
      vertex 29.497218683362007 -7.851064309477806 3
      vertex 29.574145518243313 -8.171487621963024 3
    endloop
  endfacet
  facet normal 0.9238795338653047 0.38268342909620123 0
    outer loop
      vertex 29.37111370265484 -7.546619951725006 0
      vertex 29.37111370265484 -7.546619951725006 3
      vertex 29.497218683362007 -7.851064309477806 3
    endloop
  endfacet
  facet normal 0.8526401598410851 0.5224985720805071 0
    outer loop
      vertex 29.19893568754196 -7.265650972723961 0
      vertex 29.19893568754196 -7.265650972723961 3
      vertex 29.37111370265484 -7.546619951725006 3
    endloop
  endfacet
  facet normal 0.7604059737302273 0.6494480388109467 0
    outer loop
      vertex 28.984924241900444 -7.015075758099556 0
      vertex 28.984924241900444 -7.015075758099556 3
      vertex 29.19893568754196 -7.265650972723961 3
    endloop
  endfacet
  facet normal 0.6494480388109467 0.7604059737302273 0
    outer loop
      vertex 28.73434902727604 -6.801064312458038 0
      vertex 28.73434902727604 -6.801064312458038 3
      vertex 28.984924241900444 -7.015075758099556 3
    endloop
  endfacet
  facet normal 0.6114475010757654 0.7912850013921671 0
    outer loop
      vertex 28.73434902727604 -6.801064312458038 0
      vertex 23.94473638762446 -3.1 3
      vertex 28.73434902727604 -6.801064312458038 3
    endloop
  endfacet
  facet normal 0 0 1
    outer loop
      vertex 26.546619951725006 -10.371113702654839 3
      vertex 26.851064309477806 -10.497218683362007 3
      vertex 29.19893568754196 -9.73434902727604 3
    endloop
  endfacet
  facet normal 0 0 1
    outer loop
      vertex 26.26565097272396 -10.198935687541962 3
      vertex 26.546619951725006 -10.371113702654839 3
      vertex 29.19893568754196 -9.73434902727604 3
    endloop
  endfacet
  facet normal 0 0 1
    outer loop
      vertex 27.171487621963024 -10.574145518243313 3
      vertex 29.19893568754196 -9.73434902727604 3
      vertex 26.851064309477806 -10.497218683362007 3
    endloop
  endfacet
  facet normal 0 0 1
    outer loop
      vertex 27.171487621963024 -10.574145518243313 3
      vertex 27.5 -10.600000001490116 3
      vertex 29.19893568754196 -9.73434902727604 3
    endloop
  endfacet
  facet normal 0 0 1
    outer loop
      vertex 27.5 -10.600000001490116 3
      vertex 27.828512378036976 -10.574145518243313 3
      vertex 29.19893568754196 -9.73434902727604 3
    endloop
  endfacet
  facet normal 0 0 1
    outer loop
      vertex 27.828512378036976 -10.574145518243313 3
      vertex 28.148935690522194 -10.497218683362007 3
      vertex 29.19893568754196 -9.73434902727604 3
    endloop
  endfacet
  facet normal 0 0 1
    outer loop
      vertex 28.148935690522194 -10.497218683362007 3
      vertex 28.453380048274994 -10.371113702654839 3
      vertex 29.19893568754196 -9.73434902727604 3
    endloop
  endfacet
  facet normal 0 0 1
    outer loop
      vertex 26.26565097272396 -10.198935687541962 3
      vertex 29.19893568754196 -9.73434902727604 3
      vertex 29.37111370265484 -9.453380048274994 3
    endloop
  endfacet
  facet normal 0 0 1
    outer loop
      vertex 26.26565097272396 -10.198935687541962 3
      vertex 29.37111370265484 -9.453380048274994 3
      vertex 29.497218683362007 -9.148935690522194 3
    endloop
  endfacet
  facet normal 0 0 1
    outer loop
      vertex 26.26565097272396 -10.198935687541962 3
      vertex 29.497218683362007 -9.148935690522194 3
      vertex 29.574145518243313 -8.828512378036976 3
    endloop
  endfacet
  facet normal 0 0 1
    outer loop
      vertex 28.453380048274994 -10.371113702654839 3
      vertex 28.73434902727604 -10.198935687541962 3
      vertex 29.19893568754196 -9.73434902727604 3
    endloop
  endfacet
  facet normal 0 0 1
    outer loop
      vertex 28.73434902727604 -10.198935687541962 3
      vertex 28.984924241900444 -9.984924241900444 3
      vertex 29.19893568754196 -9.73434902727604 3
    endloop
  endfacet
  facet normal 0 0 1
    outer loop
      vertex 26.26565097272396 -10.198935687541962 3
      vertex 29.574145518243313 -8.828512378036976 3
      vertex 29.600000001490116 -8.5 3
    endloop
  endfacet
  facet normal 0 0 1
    outer loop
      vertex 26.26565097272396 -10.198935687541962 3
      vertex 29.600000001490116 -8.5 3
      vertex 29.574145518243313 -8.171487621963024 3
    endloop
  endfacet
  facet normal 0 0 1
    outer loop
      vertex 26.26565097272396 -10.198935687541962 3
      vertex 29.574145518243313 -8.171487621963024 3
      vertex 29.497218683362007 -7.851064309477806 3
    endloop
  endfacet
  facet normal 0 0 1
    outer loop
      vertex 26.26565097272396 -10.198935687541962 3
      vertex 29.497218683362007 -7.851064309477806 3
      vertex 29.37111370265484 -7.546619951725006 3
    endloop
  endfacet
  facet normal 0 0 1
    outer loop
      vertex 26.26565097272396 -10.198935687541962 3
      vertex 29.19893568754196 -7.265650972723961 3
      vertex 28.984924241900444 -7.015075758099556 3
    endloop
  endfacet
  facet normal 0 0 1
    outer loop
      vertex 26.26565097272396 -10.198935687541962 3
      vertex 29.37111370265484 -7.546619951725006 3
      vertex 29.19893568754196 -7.265650972723961 3
    endloop
  endfacet
  facet normal 0 0 1
    outer loop
      vertex 26.26565097272396 -10.198935687541962 3
      vertex 28.984924241900444 -7.015075758099556 3
      vertex 28.73434902727604 -6.801064312458038 3
    endloop
  endfacet
  facet normal 0 0 1
    outer loop
      vertex 26.26565097272396 -10.198935687541962 3
      vertex 28.73434902727604 -6.801064312458038 3
      vertex 17.078793025303792 -3.1 3
    endloop
  endfacet
  facet normal -0.07845909084886164 0.9969173341171123 0
    outer loop
      vertex 16.171487621963024 2.074145518243313 0
      vertex 16.171487621963024 2.074145518243313 3
      vertex 16.5 2.100000001490116 3
    endloop
  endfacet
  facet normal 0.07845909084886164 0.9969173341171123 0
    outer loop
      vertex 16.5 2.100000001490116 0
      vertex 16.5 2.100000001490116 3
      vertex 16.828512378036976 2.074145518243313 3
    endloop
  endfacet
  facet normal 0.23344537429863108 0.9723699178906 0
    outer loop
      vertex 16.828512378036976 2.074145518243313 0
      vertex 16.828512378036976 2.074145518243313 3
      vertex 17.148935690522194 1.9972186833620071 3
    endloop
  endfacet
  facet normal 0.38268342909620123 0.9238795338653047 0
    outer loop
      vertex 17.148935690522194 1.9972186833620071 0
      vertex 17.148935690522194 1.9972186833620071 3
      vertex 17.453380048274994 1.8711137026548386 3
    endloop
  endfacet
  facet normal 0.5224985720805071 0.8526401598410851 0
    outer loop
      vertex 17.453380048274994 1.8711137026548386 0
      vertex 17.453380048274994 1.8711137026548386 3
      vertex 17.73434902727604 1.6989356875419617 3
    endloop
  endfacet
  facet normal 0.6114475010757656 0.7912850013921668 0
    outer loop
      vertex 21.097677564095047 -0.8999999999999999 0.8999999999999999
      vertex 17.73434902727604 1.6989356875419617 3
      vertex 21.097677564095047 -0.8999999999999999 3
    endloop
  endfacet
  facet normal 0 0 1
    outer loop
      vertex 17.73434902727604 1.6989356875419617 3
      vertex 9.5 -0.8 3
      vertex 21.097677564095047 -0.8999999999999999 3
    endloop
  endfacet
  facet normal 0 0 1
    outer loop
      vertex 17.453380048274994 1.8711137026548386 3
      vertex 9.5 -0.8 3
      vertex 17.73434902727604 1.6989356875419617 3
    endloop
  endfacet
  facet normal 0 0 1
    outer loop
      vertex 17.453380048274994 1.8711137026548386 3
      vertex 17.148935690522194 1.9972186833620071 3
      vertex 9.5 0.8 3
    endloop
  endfacet
  facet normal 0 0 1
    outer loop
      vertex 28.73434902727604 -6.801064312458038 3
      vertex 23.94473638762446 -3.1 3
      vertex 17.078793025303792 -3.1 3
    endloop
  endfacet
  facet normal -1 0 0
    outer loop
      vertex -9.5 0.8 3.9
      vertex -9.5 0.8 3
      vertex -9.5 -0.8 3
    endloop
  endfacet
  facet normal 0 1 0
    outer loop
      vertex -9.5 0.8 3.9
      vertex -6.5 0.8 3
      vertex -9.5 0.8 3
    endloop
  endfacet
  facet normal 0 -1 0
    outer loop
      vertex -9.5 -0.8 3.9
      vertex -9.5 -0.8 3
      vertex -6.5 -0.8 3.9
    endloop
  endfacet
  facet normal -1 0 0
    outer loop
      vertex -9.5 -0.8 3.9
      vertex -9.5 0.8 3.9
      vertex -9.5 -0.8 3
    endloop
  endfacet
  facet normal 0 0 1
    outer loop
      vertex -9.5 -0.8 3.9
      vertex -6.5 -0.8 3.9
      vertex -9.5 0.8 3.9
    endloop
  endfacet
  facet normal 0 -1 0
    outer loop
      vertex -6.5 -0.8 3.9
      vertex -9.5 -0.8 3
      vertex -6.5 -0.8 3
    endloop
  endfacet
  facet normal 1 0 0
    outer loop
      vertex -6.5 -0.8 3.9
      vertex -6.5 -0.8 3
      vertex -6.5 0.8 3
    endloop
  endfacet
  facet normal 1 0 0
    outer loop
      vertex -6.5 -0.8 3.9
      vertex -6.5 0.8 3
      vertex -6.5 0.8 3.9
    endloop
  endfacet
  facet normal 0 0 1
    outer loop
      vertex -6.5 -0.8 3.9
      vertex -6.5 0.8 3.9
      vertex -9.5 0.8 3.9
    endloop
  endfacet
  facet normal 0 1 0
    outer loop
      vertex -9.5 0.8 3.9
      vertex -6.5 0.8 3.9
      vertex -6.5 0.8 3
    endloop
  endfacet
  facet normal -1 0 0
    outer loop
      vertex 6.5 0.8 3.9
      vertex 6.5 0.8 3
      vertex 6.5 -0.8 3
    endloop
  endfacet
  facet normal -1 0 0
    outer loop
      vertex 6.5 -0.8 3.9
      vertex 6.5 0.8 3.9
      vertex 6.5 -0.8 3
    endloop
  endfacet
  facet normal 0 -1 0
    outer loop
      vertex 9.5 -0.8 3.9
      vertex 6.5 -0.8 3
      vertex 9.5 -0.8 3
    endloop
  endfacet
  facet normal 1 0 0
    outer loop
      vertex 9.5 -0.8 3.9
      vertex 9.5 -0.8 3
      vertex 9.5 0.8 3
    endloop
  endfacet
  facet normal 0 1 0
    outer loop
      vertex 6.5 0.8 3.9
      vertex 9.5 0.8 3
      vertex 6.5 0.8 3
    endloop
  endfacet
  facet normal 0 -1 0
    outer loop
      vertex 6.5 -0.8 3.9
      vertex 6.5 -0.8 3
      vertex 9.5 -0.8 3.9
    endloop
  endfacet
  facet normal 1 0 0
    outer loop
      vertex 9.5 -0.8 3.9
      vertex 9.5 0.8 3
      vertex 9.5 0.8 3.9
    endloop
  endfacet
  facet normal 0 0 1
    outer loop
      vertex 6.5 -0.8 3.9
      vertex 9.5 -0.8 3.9
      vertex 6.5 0.8 3.9
    endloop
  endfacet
  facet normal 0 0 1
    outer loop
      vertex 9.5 -0.8 3.9
      vertex 9.5 0.8 3.9
      vertex 6.5 0.8 3.9
    endloop
  endfacet
  facet normal 0 1 0
    outer loop
      vertex 6.5 0.8 3.9
      vertex 9.5 0.8 3.9
      vertex 9.5 0.8 3
    endloop
  endfacet
  facet normal 0 0 -1
    outer loop
      vertex -30 -24 0
      vertex -30 -16 0
      vertex -14 -16 0
    endloop
  endfacet
  facet normal 0 0 -1
    outer loop
      vertex -30 -24 0
      vertex -14 -16 0
      vertex -14 -24 0
    endloop
  endfacet
  facet normal -1 0 0
    outer loop
      vertex -30 -24 0
      vertex -30 -16 3
      vertex -30 -16 0
    endloop
  endfacet
  facet normal 0 -1 0
    outer loop
      vertex -30 -24 0
      vertex -14 -24 0
      vertex -14 -24 3
    endloop
  endfacet
  facet normal 0 1 0
    outer loop
      vertex -30 -16 0
      vertex -30 -16 3
      vertex -14 -16 0
    endloop
  endfacet
  facet normal 1 0 0
    outer loop
      vertex -14 -24 0
      vertex -14 -16 0
      vertex -14 -24 3
    endloop
  endfacet
  facet normal -1 0 0
    outer loop
      vertex -30 -24 0
      vertex -30 -24 3
      vertex -30 -16 3
    endloop
  endfacet
  facet normal 0 -1 0
    outer loop
      vertex -30 -24 0
      vertex -14 -24 3
      vertex -30 -24 3
    endloop
  endfacet
  facet normal 0 0 1
    outer loop
      vertex -30 -24 3
      vertex -28 -22 3
      vertex -28 -19.8 3
    endloop
  endfacet
  facet normal 0 0 1
    outer loop
      vertex -30 -24 3
      vertex -14 -24 3
      vertex -28 -22 3
    endloop
  endfacet
  facet normal 0 0 1
    outer loop
      vertex -30 -24 3
      vertex -28 -19.8 3
      vertex -30 -16 3
    endloop
  endfacet
  facet normal 0 0 1
    outer loop
      vertex -28 -19.8 3
      vertex -16 -19.8 3
      vertex -30 -16 3
    endloop
  endfacet
  facet normal 0 0 1
    outer loop
      vertex -28 -22 3
      vertex -14 -24 3
      vertex -16 -22 3
    endloop
  endfacet
  facet normal 0 0 1
    outer loop
      vertex -16 -22 3
      vertex -14 -24 3
      vertex -16 -19.8 3
    endloop
  endfacet
  facet normal 0 1 0
    outer loop
      vertex -14 -16 0
      vertex -30 -16 3
      vertex -14 -16 3
    endloop
  endfacet
  facet normal 0 0 1
    outer loop
      vertex -16 -19.8 3
      vertex -14 -16 3
      vertex -30 -16 3
    endloop
  endfacet
  facet normal 1 0 0
    outer loop
      vertex -14 -16 0
      vertex -14 -16 3
      vertex -14 -24 3
    endloop
  endfacet
  facet normal 0 0 1
    outer loop
      vertex -16 -19.8 3
      vertex -14 -24 3
      vertex -14 -16 3
    endloop
  endfacet
  facet normal 0 0 1
    outer loop
      vertex -28 -22 0.8999999999999999
      vertex -16 -19.8 0.8999999999999999
      vertex -28 -19.8 0.8999999999999999
    endloop
  endfacet
  facet normal 0 0 1
    outer loop
      vertex -28 -22 0.8999999999999999
      vertex -16 -22 0.8999999999999999
      vertex -16 -19.8 0.8999999999999999
    endloop
  endfacet
  facet normal 0 1 0
    outer loop
      vertex -28 -22 0.8999999999999999
      vertex -28 -22 3
      vertex -16 -22 0.8999999999999999
    endloop
  endfacet
  facet normal 1 0 0
    outer loop
      vertex -28 -22 0.8999999999999999
      vertex -28 -19.8 0.8999999999999999
      vertex -28 -19.8 3
    endloop
  endfacet
  facet normal -1 0 0
    outer loop
      vertex -16 -22 0.8999999999999999
      vertex -16 -22 3
      vertex -16 -19.8 0.8999999999999999
    endloop
  endfacet
  facet normal 0 -1 0
    outer loop
      vertex -28 -19.8 0.8999999999999999
      vertex -16 -19.8 0.8999999999999999
      vertex -16 -19.8 3
    endloop
  endfacet
  facet normal 1 0 0
    outer loop
      vertex -28 -22 0.8999999999999999
      vertex -28 -19.8 3
      vertex -28 -22 3
    endloop
  endfacet
  facet normal 0 -1 0
    outer loop
      vertex -28 -19.8 0.8999999999999999
      vertex -16 -19.8 3
      vertex -28 -19.8 3
    endloop
  endfacet
  facet normal 0 1 0
    outer loop
      vertex -16 -22 0.8999999999999999
      vertex -28 -22 3
      vertex -16 -22 3
    endloop
  endfacet
  facet normal -1 0 0
    outer loop
      vertex -16 -19.8 0.8999999999999999
      vertex -16 -22 3
      vertex -16 -19.8 3
    endloop
  endfacet
  facet normal 0 0 -1
    outer loop
      vertex -11 -24 0
      vertex 5 -16 0
      vertex 5 -24 0
    endloop
  endfacet
  facet normal 0 0 -1
    outer loop
      vertex -11 -24 0
      vertex -11 -16 0
      vertex 5 -16 0
    endloop
  endfacet
  facet normal -1 0 0
    outer loop
      vertex -11 -24 0
      vertex -11 -16 3
      vertex -11 -16 0
    endloop
  endfacet
  facet normal 0 -1 0
    outer loop
      vertex -11 -24 0
      vertex 5 -24 0
      vertex 5 -24 3
    endloop
  endfacet
  facet normal 0 1 0
    outer loop
      vertex -11 -16 0
      vertex -11 -16 3
      vertex 5 -16 0
    endloop
  endfacet
  facet normal -1 0 0
    outer loop
      vertex -11 -24 0
      vertex -11 -24 3
      vertex -11 -16 3
    endloop
  endfacet
  facet normal 0 -1 0
    outer loop
      vertex -11 -24 0
      vertex 5 -24 3
      vertex -11 -24 3
    endloop
  endfacet
  facet normal 0 0 1
    outer loop
      vertex -11 -24 3
      vertex -9 -22 3
      vertex -9 -19.6 3
    endloop
  endfacet
  facet normal 0 0 1
    outer loop
      vertex -11 -24 3
      vertex -9 -19.6 3
      vertex -11 -16 3
    endloop
  endfacet
  facet normal 0 0 1
    outer loop
      vertex -11 -24 3
      vertex 5 -24 3
      vertex -9 -22 3
    endloop
  endfacet
  facet normal 0 0 1
    outer loop
      vertex -9 -22 3
      vertex 5 -24 3
      vertex 3 -22 3
    endloop
  endfacet
  facet normal 0 0 1
    outer loop
      vertex -9 -19.6 3
      vertex 3 -19.6 3
      vertex -11 -16 3
    endloop
  endfacet
  facet normal 0 1 0
    outer loop
      vertex -11 -16 3
      vertex 5 -16 3
      vertex 5 -16 0
    endloop
  endfacet
  facet normal 0 0 1
    outer loop
      vertex -11 -16 3
      vertex 3 -19.6 3
      vertex 5 -16 3
    endloop
  endfacet
  facet normal 1 0 0
    outer loop
      vertex 5 -24 0
      vertex 5 -16 0
      vertex 5 -24 3
    endloop
  endfacet
  facet normal 1 0 0
    outer loop
      vertex 5 -16 0
      vertex 5 -16 3
      vertex 5 -24 3
    endloop
  endfacet
  facet normal 0 0 1
    outer loop
      vertex 3 -22 3
      vertex 5 -24 3
      vertex 3 -19.6 3
    endloop
  endfacet
  facet normal 0 0 1
    outer loop
      vertex 5 -24 3
      vertex 5 -16 3
      vertex 3 -19.6 3
    endloop
  endfacet
  facet normal 0 0 1
    outer loop
      vertex -9 -22 0.8999999999999999
      vertex 3 -22 0.8999999999999999
      vertex 3 -19.6 0.8999999999999999
    endloop
  endfacet
  facet normal 0 0 1
    outer loop
      vertex -9 -22 0.8999999999999999
      vertex 3 -19.6 0.8999999999999999
      vertex -9 -19.6 0.8999999999999999
    endloop
  endfacet
  facet normal 1 0 0
    outer loop
      vertex -9 -22 0.8999999999999999
      vertex -9 -19.6 0.8999999999999999
      vertex -9 -19.6 3
    endloop
  endfacet
  facet normal 0 1 0
    outer loop
      vertex -9 -22 0.8999999999999999
      vertex -9 -22 3
      vertex 3 -22 0.8999999999999999
    endloop
  endfacet
  facet normal 0 -1 0
    outer loop
      vertex -9 -19.6 0.8999999999999999
      vertex 3 -19.6 0.8999999999999999
      vertex 3 -19.6 3
    endloop
  endfacet
  facet normal 1 0 0
    outer loop
      vertex -9 -22 0.8999999999999999
      vertex -9 -19.6 3
      vertex -9 -22 3
    endloop
  endfacet
  facet normal 0 1 0
    outer loop
      vertex -9 -22 3
      vertex 3 -22 3
      vertex 3 -22 0.8999999999999999
    endloop
  endfacet
  facet normal 0 -1 0
    outer loop
      vertex -9 -19.6 0.8999999999999999
      vertex 3 -19.6 3
      vertex -9 -19.6 3
    endloop
  endfacet
  facet normal -1 0 0
    outer loop
      vertex 3 -22 0.8999999999999999
      vertex 3 -22 3
      vertex 3 -19.6 0.8999999999999999
    endloop
  endfacet
  facet normal -1 0 0
    outer loop
      vertex 3 -19.6 0.8999999999999999
      vertex 3 -22 3
      vertex 3 -19.6 3
    endloop
  endfacet
  facet normal 0 0 -1
    outer loop
      vertex 8 -24 0
      vertex 8 -16 0
      vertex 24 -16 0
    endloop
  endfacet
  facet normal -1 0 0
    outer loop
      vertex 8 -24 0
      vertex 8 -16 3
      vertex 8 -16 0
    endloop
  endfacet
  facet normal 0 1 0
    outer loop
      vertex 8 -16 0
      vertex 8 -16 3
      vertex 24 -16 0
    endloop
  endfacet
  facet normal 0 0 -1
    outer loop
      vertex 8 -24 0
      vertex 24 -16 0
      vertex 24 -24 0
    endloop
  endfacet
  facet normal 0 -1 0
    outer loop
      vertex 8 -24 0
      vertex 24 -24 0
      vertex 24 -24 3
    endloop
  endfacet
  facet normal 1 0 0
    outer loop
      vertex 24 -24 0
      vertex 24 -16 0
      vertex 24 -24 3
    endloop
  endfacet
  facet normal -1 0 0
    outer loop
      vertex 8 -24 0
      vertex 8 -24 3
      vertex 8 -16 3
    endloop
  endfacet
  facet normal 0 -1 0
    outer loop
      vertex 8 -24 0
      vertex 24 -24 3
      vertex 8 -24 3
    endloop
  endfacet
  facet normal 0 0 1
    outer loop
      vertex 8 -24 3
      vertex 10 -22 3
      vertex 10 -20 3
    endloop
  endfacet
  facet normal 0 0 1
    outer loop
      vertex 8 -24 3
      vertex 24 -24 3
      vertex 10 -22 3
    endloop
  endfacet
  facet normal 0 0 1
    outer loop
      vertex 8 -24 3
      vertex 10 -20 3
      vertex 8 -16 3
    endloop
  endfacet
  facet normal 0 0 1
    outer loop
      vertex 10 -20 3
      vertex 22 -20 3
      vertex 8 -16 3
    endloop
  endfacet
  facet normal 1 0 0
    outer loop
      vertex 24 -16 0
      vertex 24 -16 3
      vertex 24 -24 3
    endloop
  endfacet
  facet normal 0 0 1
    outer loop
      vertex 10 -22 3
      vertex 24 -24 3
      vertex 22 -22 3
    endloop
  endfacet
  facet normal 0 0 1
    outer loop
      vertex 22 -22 3
      vertex 24 -24 3
      vertex 22 -20 3
    endloop
  endfacet
  facet normal 0 0 1
    outer loop
      vertex 22 -20 3
      vertex 24 -24 3
      vertex 24 -16 3
    endloop
  endfacet
  facet normal 0 1 0
    outer loop
      vertex 24 -16 0
      vertex 8 -16 3
      vertex 24 -16 3
    endloop
  endfacet
  facet normal 0 0 1
    outer loop
      vertex 8 -16 3
      vertex 22 -20 3
      vertex 24 -16 3
    endloop
  endfacet
  facet normal 0 0 1
    outer loop
      vertex 10 -22 0.8999999999999999
      vertex 22 -20 0.8999999999999999
      vertex 10 -20 0.8999999999999999
    endloop
  endfacet
  facet normal 0 1 0
    outer loop
      vertex 10 -22 0.8999999999999999
      vertex 10 -22 3
      vertex 22 -22 0.8999999999999999
    endloop
  endfacet
  facet normal 1 0 0
    outer loop
      vertex 10 -22 0.8999999999999999
      vertex 10 -20 0.8999999999999999
      vertex 10 -20 3
    endloop
  endfacet
  facet normal 0 0 1
    outer loop
      vertex 10 -22 0.8999999999999999
      vertex 22 -22 0.8999999999999999
      vertex 22 -20 0.8999999999999999
    endloop
  endfacet
  facet normal -1 0 0
    outer loop
      vertex 22 -22 0.8999999999999999
      vertex 22 -22 3
      vertex 22 -20 0.8999999999999999
    endloop
  endfacet
  facet normal 0 -1 0
    outer loop
      vertex 10 -20 0.8999999999999999
      vertex 22 -20 0.8999999999999999
      vertex 22 -20 3
    endloop
  endfacet
  facet normal 1 0 0
    outer loop
      vertex 10 -22 0.8999999999999999
      vertex 10 -20 3
      vertex 10 -22 3
    endloop
  endfacet
  facet normal 0 -1 0
    outer loop
      vertex 10 -20 0.8999999999999999
      vertex 22 -20 3
      vertex 10 -20 3
    endloop
  endfacet
  facet normal 0 1 0
    outer loop
      vertex 22 -22 0.8999999999999999
      vertex 10 -22 3
      vertex 22 -22 3
    endloop
  endfacet
  facet normal -1 0 0
    outer loop
      vertex 22 -20 0.8999999999999999
      vertex 22 -22 3
      vertex 22 -20 3
    endloop
  endfacet
endsolid OpenSCAD_Model
